  0
SECTION
  2
HEADER
  9
$ACADVER
  1
AC1014
  9
$HANDSEED
  5
FFFF
  9
$MEASUREMENT
 70
     1
  0
ENDSEC
  0
SECTION
  2
TABLES
  0
TABLE
  2
VPORT
  5
8
330
0
100
AcDbSymbolTable
 70
     4
  0
VPORT
  5
2E
330
8
100
AcDbSymbolTableRecord
100
AcDbViewportTableRecord
  2
*ACTIVE
 70
     0
 10
0.0
 20
0.0
 11
1.0
 21
1.0
 12
210.0
 22
148.5
 13
0.0
 23
0.0
 14
10.0
 24
10.0
 15
10.0
 25
10.0
 16
0.0
 26
0.0
 36
1.0
 17
0.0
 27
0.0
 37
0.0
 40
341.0
 41
1.24
 42
50.0
 43
0.0
 44
0.0
 50
0.0
 51
0.0
 71
     0
 72
   100
 73
     1
 74
     3
 75
     0
 76
     0
 77
     0
 78
     0
  0
ENDTAB
  0
TABLE
  2
LTYPE
  5
5
330
0
100
AcDbSymbolTable
 70
     1
  0
LTYPE
  5
14
330
5
100
AcDbSymbolTableRecord
100
AcDbLinetypeTableRecord
  2
BYBLOCK
 70
     0
  3

 72
    65
 73
     0
 40
0.0
  0
LTYPE
  5
15
330
5
100
AcDbSymbolTableRecord
100
AcDbLinetypeTableRecord
  2
BYLAYER
 70
     0
  3

 72
    65
 73
     0
 40
0.0
  0
LTYPE
  5
16
330
5
100
AcDbSymbolTableRecord
100
AcDbLinetypeTableRecord
  2
CONTINUOUS
 70
     0
  3
Solid line
 72
    65
 73
     0
 40
0.0
  0
ENDTAB
  0
TABLE
  2
LAYER
  5
2
100
AcDbSymbolTable
 70
2
  0
LAYER
  5
50
100
AcDbSymbolTableRecord
100
AcDbLayerTableRecord
  2
0
 70
0
  6
CONTINUOUS
  0
LAYER
  5
51
100
AcDbSymbolTableRecord
100
AcDbLayerTableRecord
  2
Layer_1
 70
0
  6
CONTINUOUS
  0
ENDTAB
  0
TABLE
  2
STYLE
  5
3
330
0
100
AcDbSymbolTable
 70
     1
  0
STYLE
  5
11
330
3
100
AcDbSymbolTableRecord
100
AcDbTextStyleTableRecord
  2
STANDARD
 70
     0
 40
0.0
 41
1.0
 50
0.0
 71
     0
 42
2.5
  3
txt
  4

  0
ENDTAB
  0
TABLE
  2
VIEW
  5
6
330
0
100
AcDbSymbolTable
 70
     0
  0
ENDTAB
  0
TABLE
  2
UCS
  5
7
330
0
100
AcDbSymbolTable
 70
     0
  0
ENDTAB
  0
TABLE
  2
APPID
  5
9
330
0
100
AcDbSymbolTable
 70
     2
  0
APPID
  5
12
330
9
100
AcDbSymbolTableRecord
100
AcDbRegAppTableRecord
  2
ACAD
 70
     0
  0
ENDTAB
  0
TABLE
  2
DIMSTYLE
  5
A
330
0
100
AcDbSymbolTable
 70
     1
  0
DIMSTYLE
105
27
330
A
100
AcDbSymbolTableRecord
100
AcDbDimStyleTableRecord
  2
ISO-25
 70
     0
  3

  4

  5

  6

  7

 40
1.0
 41
2.5
 42
0.625
 43
3.75
 44
1.25
 45
0.0
 46
0.0
 47
0.0
 48
0.0
140
2.5
141
2.5
142
0.0
143
0.03937007874016
144
1.0
145
0.0
146
1.0
147
0.625
 71
     0
 72
     0
 73
     0
 74
     0
 75
     0
 76
     0
 77
     1
 78
     8
170
     0
171
     3
172
     1
173
     0
174
     0
175
     0
176
     0
177
     0
178
     0
270
     2
271
     2
272
     2
273
     2
274
     3
340
11
275
     0
280
     0
281
     0
282
     0
283
     0
284
     8
285
     0
286
     0
287
     3
288
     0
  0
ENDTAB
  0
TABLE
  2
BLOCK_RECORD
  5
1
330
0
100
AcDbSymbolTable
 70
     1
  0
BLOCK_RECORD
  5
1F
330
1
100
AcDbSymbolTableRecord
100
AcDbBlockTableRecord
  2
*MODEL_SPACE
  0
BLOCK_RECORD
  5
1B
330
1
100
AcDbSymbolTableRecord
100
AcDbBlockTableRecord
  2
*PAPER_SPACE
  0
ENDTAB
  0
ENDSEC
  0
SECTION
  2
BLOCKS
  0
BLOCK
  5
20
330
1F
100
AcDbEntity
  8
0
100
AcDbBlockBegin
  2
*MODEL_SPACE
 70
     0
 10
0.0
 20
0.0
 30
0.0
  3
*MODEL_SPACE
  1

  0
ENDBLK
  5
21
330
1F
100
AcDbEntity
  8
0
100
AcDbBlockEnd
  0
BLOCK
  5
1C
330
1B
100
AcDbEntity
 67
     1
  8
0
100
AcDbBlockBegin
  2
*PAPER_SPACE
  1

  0
ENDBLK
  5
1D
330
1B
100
AcDbEntity
 67
     1
  8
0
100
AcDbBlockEnd
  0
ENDSEC
  0
SECTION
  2
ENTITIES
  0
LWPOLYLINE
  5
100
100
AcDbEntity
  8
Layer_1
 62
7
100
AcDbPolyline
 90
554
 70
0
 10
294.498104
 20
123.387644
 30
0.0
 10
293.173672
 20
124.006132
 30
0.0
 10
291.761696
 20
124.591268
 30
0.0
 10
290.431064
 20
125.077100
 30
0.0
 10
289.350664
 20
125.397684
 30
0.0
 10
288.294776
 20
125.742204
 30
0.0
 10
287.030792
 20
126.293244
 30
0.0
 10
285.717440
 20
126.974884
 30
0.0
 10
284.513464
 20
127.711204
 30
0.0
 10
283.105632
 20
128.524484
 30
0.0
 10
281.237232
 20
129.415668
 30
0.0
 10
279.151768
 20
130.276836
 30
0.0
 10
277.092744
 20
131.000068
 30
0.0
 10
273.217648
 20
132.373980
 30
0.0
 10
268.587016
 20
134.233476
 30
0.0
 10
264.071264
 20
136.213188
 30
0.0
 10
260.540824
 20
137.947756
 30
0.0
 10
259.890088
 20
138.240276
 30
0.0
 10
259.145264
 20
138.479812
 30
0.0
 10
258.398216
 20
138.641628
 30
0.0
 10
257.740824
 20
138.701068
 30
0.0
 10
256.624872
 20
138.980412
 30
0.0
 10
254.629384
 20
139.741100
 30
0.0
 10
252.036896
 20
140.866964
 30
0.0
 10
249.129944
 20
142.241812
 30
0.0
 10
245.955568
 20
143.752164
 30
0.0
 10
242.634944
 20
145.246972
 30
0.0
 10
239.561816
 20
146.553700
 30
0.0
 10
237.129944
 20
147.499836
 30
0.0
 10
235.139944
 20
148.273604
 30
0.0
 10
233.269944
 20
149.111036
 30
0.0
 10
231.729944
 20
149.911276
 30
0.0
 10
230.729944
 20
150.573468
 30
0.0
 10
228.396768
 20
152.412868
 30
0.0
 10
225.957536
 20
154.081700
 30
0.0
 10
223.531488
 20
155.504188
 30
0.0
 10
221.237864
 20
156.604572
 30
0.0
 10
220.108768
 20
157.131052
 30
0.0
 10
219.184144
 20
157.666380
 30
0.0
 10
218.559400
 20
158.147924
 30
0.0
 10
218.329944
 20
158.513068
 30
0.0
 10
218.061664
 20
158.929252
 30
0.0
 10
217.331192
 20
159.549756
 30
0.0
 10
216.250104
 20
160.290740
 30
0.0
 10
214.929944
 20
161.068356
 30
0.0
 10
213.085032
 20
162.145188
 30
0.0
 10
210.575160
 20
163.700860
 30
0.0
 10
207.730104
 20
165.527116
 30
0.0
 10
204.879624
 20
167.415668
 30
0.0
 10
202.190928
 20
169.219380
 30
0.0
 10
199.786360
 20
170.814636
 30
0.0
 10
197.928432
 20
172.028444
 30
0.0
 10
196.879624
 20
172.687804
 30
0.0
 10
195.750496
 20
173.388812
 30
0.0
 10
193.673856
 20
174.716028
 30
0.0
 10
190.945600
 20
176.479132
 30
0.0
 10
187.861624
 20
178.487804
 30
0.0
 10
184.826408
 20
180.433500
 30
0.0
 10
182.230920
 20
182.025132
 30
0.0
 10
180.350784
 20
183.098572
 30
0.0
 10
179.461624
 20
183.489684
 30
0.0
 10
178.893472
 20
183.766836
 30
0.0
 10
177.887384
 20
184.530036
 30
0.0
 10
176.585496
 20
185.662540
 30
0.0
 10
175.129944
 20
187.047572
 30
0.0
 10
168.664424
 20
193.389340
 30
0.0
 10
164.024992
 20
197.771900
 30
0.0
 10
161.000648
 20
200.387916
 30
0.0
 10
159.380424
 20
201.430060
 30
0.0
 10
158.664752
 20
201.836468
 30
0.0
 10
157.788376
 20
202.596500
 30
0.0
 10
156.862304
 20
203.601484
 30
0.0
 10
155.997544
 20
204.742700
 30
0.0
 10
155.115656
 20
205.917244
 30
0.0
 10
154.142944
 20
207.012964
 30
0.0
 10
153.197528
 20
207.907292
 30
0.0
 10
152.397544
 20
208.477684
 30
0.0
 10
151.427568
 20
209.144524
 30
0.0
 10
150.019312
 20
210.301460
 30
0.0
 10
148.361592
 20
211.785836
 30
0.0
 10
146.643224
 20
213.434980
 30
0.0
 10
144.584456
 20
215.444028
 30
0.0
 10
141.999920
 20
217.908340
 30
0.0
 10
139.220000
 20
220.515572
 30
0.0
 10
136.575064
 20
222.953412
 30
0.0
 10
133.942360
 20
225.514420
 30
0.0
 10
131.195720
 20
228.457004
 30
0.0
 10
128.660440
 20
231.417628
 30
0.0
 10
126.661784
 20
234.032756
 30
0.0
 10
124.898416
 20
236.525172
 30
0.0
 10
123.003680
 20
239.151700
 30
0.0
 10
121.205040
 20
241.599820
 30
0.0
 10
119.729944
 20
243.557012
 30
0.0
 10
118.565104
 20
245.124140
 30
0.0
 10
117.611192
 20
246.510196
 30
0.0
 10
116.966664
 20
247.564860
 30
0.0
 10
116.729944
 20
248.137836
 30
0.0
 10
116.461664
 20
248.758268
 30
0.0
 10
115.731192
 20
249.942156
 30
0.0
 10
114.650104
 20
251.519444
 30
0.0
 10
113.329944
 20
253.320100
 30
0.0
 10
108.220312
 20
260.324788
 30
0.0
 10
103.707288
 20
266.952580
 30
0.0
 10
100.345768
 20
272.355684
 30
0.0
 10
98.690664
 20
275.686284
 30
0.0
 10
98.428816
 20
276.454108
 30
0.0
 10
98.127240
 20
277.203076
 30
0.0
 10
97.823240
 20
277.847372
 30
0.0
 10
97.554104
 20
278.301204
 30
0.0
 10
97.221048
 20
278.950052
 30
0.0
 10
96.743024
 20
280.125340
 30
0.0
 10
96.183880
 20
281.660164
 30
0.0
 10
95.607464
 20
283.387620
 30
0.0
 10
94.934464
 20
285.281852
 30
0.0
 10
94.112224
 20
287.270764
 30
0.0
 10
93.244808
 20
289.118108
 30
0.0
 10
92.436264
 20
290.587620
 30
0.0
 10
91.650032
 20
291.939844
 30
0.0
 10
90.843256
 20
293.467836
 30
0.0
 10
90.110744
 20
294.984116
 30
0.0
 10
89.547304
 20
296.301204
 30
0.0
 10
88.858376
 20
297.962164
 30
0.0
 10
87.784168
 20
300.414732
 30
0.0
 10
86.471672
 20
303.328420
 30
0.0
 10
85.067872
 20
306.372772
 30
0.0
 10
83.456024
 20
310.179092
 30
0.0
 10
81.577056
 20
315.167460
 30
0.0
 10
79.664454
 20
320.690540
 30
0.0
 10
77.951715
 20
326.100996
 30
0.0
 10
76.384574
 20
331.177628
 30
0.0
 10
74.868305
 20
335.791780
 30
0.0
 10
73.575882
 20
339.434932
 30
0.0
 10
72.680275
 20
341.598580
 30
0.0
 10
72.078974
 20
342.907996
 30
0.0
 10
71.587765
 20
344.225300
 30
0.0
 10
71.257251
 20
345.397180
 30
0.0
 10
71.138035
 20
346.270356
 30
0.0
 10
70.704665
 20
348.666972
 30
0.0
 10
69.594495
 20
352.594292
 30
0.0
 10
68.112235
 20
357.065308
 30
0.0
 10
66.562595
 20
361.093028
 30
0.0
 10
66.047571
 20
362.461756
 30
0.0
 10
65.524725
 20
364.124660
 30
0.0
 10
65.055174
 20
365.871756
 30
0.0
 10
64.700035
 20
367.493028
 30
0.0
 10
64.336898
 20
369.335892
 30
0.0
 10
63.845565
 20
371.686300
 30
0.0
 10
63.290466
 20
374.242124
 30
0.0
 10
62.736035
 20
376.701204
 30
0.0
 10
62.176742
 20
379.254332
 30
0.0
 10
61.608315
 20
382.066204
 30
0.0
 10
61.097248
 20
384.795580
 30
0.0
 10
60.710035
 20
387.101204
 30
0.0
 10
59.645542
 20
392.982580
 30
0.0
 10
58.081595
 20
400.549332
 30
0.0
 10
56.466108
 20
407.724652
 30
0.0
 10
55.246995
 20
412.431732
 30
0.0
 10
54.308018
 20
416.943644
 30
0.0
 10
53.135955
 20
425.081932
 30
0.0
 10
51.780533
 20
436.462484
 30
0.0
 10
50.291475
 20
450.701204
 30
0.0
 10
49.600072
 20
457.214012
 30
0.0
 10
48.918430
 20
462.823508
 30
0.0
 10
48.325070
 20
466.931260
 30
0.0
 10
47.898515
 20
468.938844
 30
0.0
 10
47.600093
 20
470.126988
 30
0.0
 10
47.355715
 20
472.003572
 30
0.0
 10
47.190598
 20
474.310948
 30
0.0
 10
47.129958
 20
476.791436
 30
0.0
 10
47.065246
 20
479.247836
 30
0.0
 10
46.889056
 20
481.489604
 30
0.0
 10
46.628296
 20
483.269092
 30
0.0
 10
46.309876
 20
484.338660
 30
0.0
 10
45.398442
 20
494.624100
 30
0.0
 10
44.762086
 20
517.560788
 30
0.0
 10
44.506445
 20
546.952116
 30
0.0
 10
44.737156
 20
576.601484
 30
0.0
 10
45.192320
 20
598.417364
 30
0.0
 10
45.948526
 20
609.556732
 30
0.0
 10
47.665947
 20
614.243404
 30
0.0
 10
51.004756
 20
616.701204
 30
0.0
 10
52.448443
 20
617.662116
 30
0.0
 10
54.500815
 20
619.095684
 30
0.0
 10
56.888438
 20
620.808172
 30
0.0
 10
59.337876
 20
622.605820
 30
0.0
 10
61.744650
 20
624.345868
 30
0.0
 10
64.016037
 20
625.901468
 30
0.0
 10
65.896364
 20
627.102844
 30
0.0
 10
67.129956
 20
627.780220
 30
0.0
 10
68.185322
 20
628.358116
 30
0.0
 10
69.580377
 20
629.288628
 30
0.0
 10
71.133562
 20
630.443332
 30
0.0
 10
72.663316
 20
631.693828
 30
0.0
 10
74.194062
 20
632.915556
 30
0.0
 10
75.750046
 20
633.991948
 30
0.0
 10
77.149265
 20
634.806548
 30
0.0
 10
78.209716
 20
635.242908
 30
0.0
 10
79.209554
 20
635.587164
 30
0.0
 10
80.443744
 20
636.150972
 30
0.0
 10
81.755496
 20
636.856196
 30
0.0
 10
82.988032
 20
637.624684
 30
0.0
 10
84.144456
 20
638.353300
 30
0.0
 10
85.248984
 20
638.949980
 30
0.0
 10
86.176496
 20
639.353132
 30
0.0
 10
86.801872
 20
639.501204
 30
0.0
 10
87.259496
 20
639.585692
 30
0.0
 10
87.730360
 20
639.815724
 30
0.0
 10
88.159056
 20
640.156172
 30
0.0
 10
88.490184
 20
640.571900
 30
0.0
 10
89.085768
 20
641.157076
 30
0.0
 10
90.234504
 20
641.958892
 30
0.0
 10
91.771024
 20
642.871740
 30
0.0
 10
93.529944
 20
643.790036
 30
0.0
 10
95.554008
 20
644.812956
 30
0.0
 10
97.812440
 20
646.010684
 30
0.0
 10
100.029632
 20
647.234116
 30
0.0
 10
101.929944
 20
648.334148
 30
0.0
 10
104.371640
 20
649.754348
 30
0.0
 10
106.620736
 20
650.951644
 30
0.0
 10
109.024432
 20
652.101156
 30
0.0
 10
111.929944
 20
653.378004
 30
0.0
 10
112.490568
 20
653.638860
 30
0.0
 10
113.129944
 20
653.969884
 30
0.0
 10
113.769320
 20
654.328588
 30
0.0
 10
114.329944
 20
654.672508
 30
0.0
 10
115.427128
 20
655.236308
 30
0.0
 10
117.527440
 20
656.193716
 30
0.0
 10
120.329008
 20
657.410820
 30
0.0
 10
123.529944
 20
658.753692
 30
0.0
 10
129.552488
 20
661.294356
 30
0.0
 10
135.328712
 20
663.830988
 30
0.0
 10
140.205560
 20
666.070780
 30
0.0
 10
143.529944
 20
667.720908
 30
0.0
 10
144.593072
 20
668.164916
 30
0.0
 10
146.304944
 20
668.735524
 30
0.0
 10
148.429320
 20
669.359188
 30
0.0
 10
150.729944
 20
669.962364
 30
0.0
 10
154.840096
 20
671.037468
 30
0.0
 10
158.341336
 20
672.115644
 30
0.0
 10
161.650016
 20
673.337524
 30
0.0
 10
165.182504
 20
674.843732
 30
0.0
 10
166.611160
 20
675.409644
 30
0.0
 10
168.096592
 20
675.873068
 30
0.0
 10
169.463184
 20
676.186204
 30
0.0
 10
170.535304
 20
676.301204
 30
0.0
 10
171.386792
 20
676.359444
 30
0.0
 10
172.152656
 20
676.518092
 30
0.0
 10
172.749000
 20
676.752892
 30
0.0
 10
173.091944
 20
677.039620
 30
0.0
 10
173.473560
 20
677.370700
 30
0.0
 10
174.175296
 20
677.726260
 30
0.0
 10
175.097152
 20
678.063636
 30
0.0
 10
176.139144
 20
678.340140
 30
0.0
 10
177.776360
 20
678.765116
 30
0.0
 10
180.318904
 20
679.506748
 30
0.0
 10
183.419264
 20
680.460604
 30
0.0
 10
186.729944
 20
681.522276
 30
0.0
 10
194.914032
 20
684.171324
 30
0.0
 10
200.095552
 20
685.747140
 30
0.0
 10
203.179368
 20
686.505252
 30
0.0
 10
205.070344
 20
686.701172
 30
0.0
 10
210.201608
 20
687.461972
 30
0.0
 10
218.962184
 20
689.208044
 30
0.0
 10
227.551760
 20
691.134884
 30
0.0
 10
232.170024
 20
692.437988
 30
0.0
 10
233.625568
 20
692.789892
 30
0.0
 10
236.524080
 20
693.184476
 30
0.0
 10
240.445568
 20
693.573476
 30
0.0
 10
244.970024
 20
693.908636
 30
0.0
 10
249.854288
 20
694.254244
 30
0.0
 10
254.755456
 20
694.671692
 30
0.0
 10
259.103880
 20
695.108372
 30
0.0
 10
262.329944
 20
695.511692
 30
0.0
 10
275.237680
 20
696.113940
 30
0.0
 10
297.566176
 20
696.314700
 30
0.0
 10
320.876552
 20
696.113972
 30
0.0
 10
336.729944
 20
695.511756
 30
0.0
 10
344.723400
 20
694.728356
 30
0.0
 10
351.324448
 20
693.889092
 30
0.0
 10
356.228240
 20
693.038732
 30
0.0
 10
359.129944
 20
692.222044
 30
0.0
 10
364.492568
 20
690.915684
 30
0.0
 10
374.187440
 20
689.078196
 30
0.0
 10
384.115992
 20
687.436300
 30
0.0
 10
390.179624
 20
686.716708
 30
0.0
 10
391.504392
 20
686.623700
 30
0.0
 10
393.152648
 20
686.381924
 30
0.0
 10
394.914392
 20
686.028084
 30
0.0
 10
396.579624
 20
685.598844
 30
0.0
 10
403.365480
 20
683.620532
 30
0.0
 10
409.091928
 20
681.988268
 30
0.0
 10
413.999808
 20
680.634428
 30
0.0
 10
418.329928
 20
679.491364
 30
0.0
 10
420.785864
 20
678.835516
 30
0.0
 10
423.037424
 20
678.190740
 30
0.0
 10
424.835240
 20
677.631204
 30
0.0
 10
425.929928
 20
677.231068
 30
0.0
 10
426.803680
 20
676.888124
 30
0.0
 10
427.999928
 20
676.484292
 30
0.0
 10
429.361176
 20
676.069956
 30
0.0
 10
430.729928
 20
675.695508
 30
0.0
 10
434.031120
 20
674.773572
 30
0.0
 10
437.063584
 20
673.762684
 30
0.0
 10
439.868832
 20
672.647732
 30
0.0
 10
442.488408
 20
671.413588
 30
0.0
 10
443.789720
 20
670.826340
 30
0.0
 10
445.145864
 20
670.345436
 30
0.0
 10
446.396320
 20
670.020508
 30
0.0
 10
447.380568
 20
669.901172
 30
0.0
 10
448.291824
 20
669.774924
 30
0.0
 10
449.343648
 20
669.431172
 30
0.0
 10
450.405848
 20
668.922420
 30
0.0
 10
451.348248
 20
668.301172
 30
0.0
 10
452.256064
 20
667.679924
 30
0.0
 10
453.224200
 20
667.171172
 30
0.0
 10
454.136816
 20
666.827420
 30
0.0
 10
454.878088
 20
666.701172
 30
0.0
 10
455.589768
 20
666.609508
 30
0.0
 10
456.421720
 20
666.359924
 30
0.0
 10
457.270456
 20
665.990548
 30
0.0
 10
458.032488
 20
665.539484
 30
0.0
 10
459.427600
 20
664.776404
 30
0.0
 10
462.000168
 20
663.557484
 30
0.0
 10
465.383392
 20
662.050588
 30
0.0
 10
469.210488
 20
660.423580
 30
0.0
 10
475.868392
 20
657.631700
 30
0.0
 10
480.557976
 20
655.596948
 30
0.0
 10
483.653680
 20
654.151972
 30
0.0
 10
485.529928
 20
653.129396
 30
0.0
 10
486.406176
 20
652.666772
 30
0.0
 10
487.904928
 20
651.960020
 30
0.0
 10
489.816176
 20
651.105316
 30
0.0
 10
491.929928
 20
650.198804
 30
0.0
 10
494.043680
 20
649.280932
 30
0.0
 10
495.954928
 20
648.395268
 30
0.0
 10
497.453680
 20
647.642708
 30
0.0
 10
498.329928
 20
647.124140
 30
0.0
 10
499.356224
 20
646.452404
 30
0.0
 10
500.872928
 20
645.678820
 30
0.0
 10
503.318136
 20
644.598380
 30
0.0
 10
507.129928
 20
643.006076
 30
0.0
 10
508.843368
 20
642.191676
 30
0.0
 10
510.847432
 20
641.073212
 30
0.0
 10
512.892744
 20
639.798108
 30
0.0
 10
514.729928
 20
638.513748
 30
0.0
 10
516.346176
 20
637.346316
 30
0.0
 10
517.789928
 20
636.389580
 30
0.0
 10
518.903680
 20
635.742308
 30
0.0
 10
519.529928
 20
635.503292
 30
0.0
 10
520.187744
 20
635.251932
 30
0.0
 10
521.387424
 20
634.570788
 30
0.0
 10
522.958368
 20
633.563868
 30
0.0
 10
524.729928
 20
632.335196
 30
0.0
 10
526.801232
 20
630.933244
 30
0.0
 10
529.188304
 20
629.454476
 30
0.0
 10
531.595872
 20
628.074932
 30
0.0
 10
533.728648
 20
626.970628
 30
0.0
 10
535.550192
 20
626.002772
 30
0.0
 10
537.110248
 20
624.994732
 30
0.0
 10
538.242984
 20
624.065812
 30
0.0
 10
538.782568
 20
623.335284
 30
0.0
 10
539.017456
 20
622.778444
 30
0.0
 10
539.320560
 20
622.322444
 30
0.0
 10
539.652744
 20
622.014332
 30
0.0
 10
539.974888
 20
621.901172
 30
0.0
 10
541.752952
 20
620.922580
 30
0.0
 10
545.106696
 20
618.534500
 30
0.0
 10
548.936016
 20
615.558460
 30
0.0
 10
552.140808
 20
612.816020
 30
0.0
 10
552.693504
 20
612.301380
 30
0.0
 10
553.246208
 20
611.786732
 30
0.0
 10
553.798904
 20
611.272092
 30
0.0
 10
554.351608
 20
610.757444
 30
0.0
 10
554.267688
 20
597.000412
 30
0.0
 10
554.183768
 20
583.243380
 30
0.0
 10
554.099848
 20
569.486340
 30
0.0
 10
554.015928
 20
555.729308
 30
0.0
 10
553.725016
 20
523.293436
 30
0.0
 10
553.289216
 20
501.463676
 30
0.0
 10
552.664568
 20
488.809692
 30
0.0
 10
551.807048
 20
483.901172
 30
0.0
 10
551.402608
 20
481.696796
 30
0.0
 10
550.687880
 20
476.286172
 30
0.0
 10
549.763792
 20
468.483044
 30
0.0
 10
548.731288
 20
459.101172
 30
0.0
 10
547.487568
 20
448.298988
 30
0.0
 10
545.988368
 20
436.628676
 30
0.0
 10
544.422448
 20
425.494612
 30
0.0
 10
542.978568
 20
416.301172
 30
0.0
 10
541.689832
 20
408.433364
 30
0.0
 10
540.546336
 20
400.908676
 30
0.0
 10
539.672320
 20
394.580236
 30
0.0
 10
539.192008
 20
390.301172
 30
0.0
 10
538.828624
 20
387.126796
 30
0.0
 10
538.272944
 20
383.806172
 30
0.0
 10
537.600608
 20
380.733044
 30
0.0
 10
536.887208
 20
378.301172
 30
0.0
 10
536.218608
 20
376.277172
 30
0.0
 10
535.668128
 20
374.314612
 30
0.0
 10
535.292792
 20
372.637612
 30
0.0
 10
535.149608
 20
371.470324
 30
0.0
 10
535.015560
 20
370.434156
 30
0.0
 10
534.665568
 20
369.114164
 30
0.0
 10
534.152680
 20
367.679964
 30
0.0
 10
533.529928
 20
366.301172
 30
0.0
 10
532.908680
 20
364.889084
 30
0.0
 10
532.399928
 20
363.364220
 30
0.0
 10
532.056176
 20
361.910044
 30
0.0
 10
531.929928
 20
360.710020
 30
0.0
 10
531.842608
 20
359.632972
 30
0.0
 10
531.604856
 20
358.513620
 30
0.0
 10
531.253008
 20
357.484284
 30
0.0
 10
530.823368
 20
356.677308
 30
0.0
 10
530.326424
 20
355.631764
 30
0.0
 10
529.791384
 20
353.952884
 30
0.0
 10
529.282544
 20
351.872196
 30
0.0
 10
528.864168
 20
349.621220
 30
0.0
 10
528.431448
 20
347.339684
 30
0.0
 10
527.883440
 20
345.175772
 30
0.0
 10
527.290416
 20
343.373732
 30
0.0
 10
526.722648
 20
342.177796
 30
0.0
 10
525.289848
 20
339.130220
 30
0.0
 10
523.573896
 20
334.460084
 30
0.0
 10
522.134144
 20
329.817964
 30
0.0
 10
521.529928
 20
326.854460
 30
0.0
 10
521.445128
 20
326.187404
 30
0.0
 10
521.214248
 20
325.404092
 30
0.0
 10
520.872544
 20
324.602140
 30
0.0
 10
520.455288
 20
323.879180
 30
0.0
 10
519.837200
 20
322.666780
 30
0.0
 10
518.948584
 20
320.532212
 30
0.0
 10
517.908264
 20
317.776628
 30
0.0
 10
516.835048
 20
314.701172
 30
0.0
 10
515.789456
 20
311.623988
 30
0.0
 10
514.824456
 20
308.863676
 30
0.0
 10
514.047328
 20
306.722108
 30
0.0
 10
513.565368
 20
305.501172
 30
0.0
 10
513.207176
 20
304.627420
 30
0.0
 10
512.767048
 20
303.431172
 30
0.0
 10
512.300824
 20
302.069924
 30
0.0
 10
511.864328
 20
300.701172
 30
0.0
 10
510.987960
 20
298.306036
 30
0.0
 10
509.606488
 20
295.250676
 30
0.0
 10
507.664616
 20
291.420564
 30
0.0
 10
505.107048
 20
286.701172
 30
0.0
 10
504.515728
 20
285.577420
 30
0.0
 10
503.725248
 20
283.996172
 30
0.0
 10
502.838888
 20
282.167420
 30
0.0
 10
501.959928
 20
280.301172
 30
0.0
 10
498.742672
 20
273.667508
 30
0.0
 10
495.738192
 20
268.091532
 30
0.0
 10
493.030952
 20
263.720380
 30
0.0
 10
490.705448
 20
260.701172
 30
0.0
 10
489.166176
 20
258.890548
 30
0.0
 10
487.147096
 20
256.326172
 30
0.0
 10
484.910288
 20
253.349300
 30
0.0
 10
482.717848
 20
250.301172
 30
0.0
 10
480.558480
 20
247.253044
 30
0.0
 10
478.411736
 20
244.276172
 30
0.0
 10
476.525952
 20
241.711796
 30
0.0
 10
475.149448
 20
239.901172
 30
0.0
 10
473.646288
 20
237.945220
 30
0.0
 10
471.415640
 20
234.985140
 30
0.0
 10
468.758488
 20
231.422628
 30
0.0
 10
465.975848
 20
227.659364
 30
0.0
 10
463.022200
 20
223.811396
 30
0.0
 10
460.264744
 20
220.531252
 30
0.0
 10
457.891944
 20
218.031284
 30
0.0
 10
456.092248
 20
216.523836
 30
0.0
 10
454.772984
 20
215.567116
 30
0.0
 10
453.567880
 20
214.509892
 30
0.0
 10
452.610168
 20
213.480676
 30
0.0
 10
452.033048
 20
212.607956
 30
0.0
 10
451.534208
 20
211.788580
 30
0.0
 10
450.789728
 20
210.904596
 30
0.0
 10
449.900224
 20
210.062316
 30
0.0
 10
448.966328
 20
209.368052
 30
0.0
 10
447.840760
 20
208.563132
 30
0.0
 10
446.429280
 20
207.419556
 30
0.0
 10
444.912248
 20
206.089644
 30
0.0
 10
443.470008
 20
204.725740
 30
0.0
 10
441.790568
 20
203.094948
 30
0.0
 10
439.627576
 20
201.038388
 30
0.0
 10
437.260064
 20
198.819364
 30
0.0
 10
434.967048
 20
196.701172
 30
0.0
 10
432.655288
 20
194.583316
 30
0.0
 10
430.236816
 20
192.365196
 30
0.0
 10
427.998424
 20
190.309972
 30
0.0
 10
426.226888
 20
188.680820
 30
0.0
 10
421.394688
 20
184.908444
 30
0.0
 10
414.033808
 20
179.701612
 30
0.0
 10
407.098608
 20
175.089476
 30
0.0
 10
403.543464
 20
173.101172
 30
0.0
 10
403.100832
 20
172.927580
 30
0.0
 10
402.340904
 20
172.454924
 30
0.0
 10
401.370256
 20
171.755388
 30
0.0
 10
400.295464
 20
170.901172
 30
0.0
 10
398.850168
 20
169.794452
 30
0.0
 10
396.870736
 20
168.407420
 30
0.0
 10
394.617800
 20
166.917268
 30
0.0
 10
392.352024
 20
165.501172
 30
0.0
 10
390.024744
 20
164.058884
 30
0.0
 10
387.604360
 20
162.497396
 30
0.0
 10
385.377088
 20
161.004804
 30
0.0
 10
383.629144
 20
159.769172
 30
0.0
 10
382.083288
 20
158.684868
 30
0.0
 10
380.406160
 20
157.604308
 30
0.0
 10
378.799992
 20
156.652628
 30
0.0
 10
377.466984
 20
155.954988
 30
0.0
 10
375.505920
 20
155.003812
 30
0.0
 10
373.373176
 20
153.908524
 30
0.0
 10
371.103072
 20
152.687172
 30
0.0
 10
368.729944
 20
151.357828
 30
0.0
 10
367.853696
 20
150.903788
 30
0.0
 10
366.354944
 20
150.173852
 30
0.0
 10
364.443696
 20
149.268700
 30
0.0
 10
362.329944
 20
148.289028
 30
0.0
 10
360.216192
 20
147.301060
 30
0.0
 10
358.304944
 20
146.373316
 30
0.0
 10
356.806192
 20
145.609940
 30
0.0
 10
355.929944
 20
145.115076
 30
0.0
 10
355.255160
 20
144.714372
 30
0.0
 10
354.304960
 20
144.207356
 30
0.0
 10
353.205576
 20
143.659036
 30
0.0
 10
352.083224
 20
143.134388
 30
0.0
 10
350.892872
 20
142.544156
 30
0.0
 10
349.608456
 20
141.817244
 30
0.0
 10
348.384440
 20
141.045924
 30
0.0
 10
347.375304
 20
140.322460
 30
0.0
 10
346.462936
 20
139.692948
 30
0.0
 10
345.502384
 20
139.177428
 30
0.0
 10
344.607896
 20
138.829100
 30
0.0
 10
343.893704
 20
138.701172
 30
0.0
 10
342.910400
 20
138.457716
 30
0.0
 10
341.283184
 20
137.794844
 30
0.0
 10
339.238184
 20
136.813796
 30
0.0
 10
337.001544
 20
135.615812
 30
0.0
 10
334.643024
 20
134.374860
 30
0.0
 10
332.266064
 20
133.276836
 30
0.0
 10
330.147528
 20
132.440844
 30
0.0
 10
328.564264
 20
131.985988
 30
0.0
 10
326.445528
 20
131.483564
 30
0.0
 10
323.815712
 20
130.585388
 30
0.0
 10
320.101600
 20
129.073700
 30
0.0
 10
314.729944
 20
126.730748
 30
0.0
 10
311.152192
 20
125.156388
 30
0.0
 10
308.258504
 20
123.905372
 30
0.0
 10
306.100544
 20
122.999740
 30
0.0
 10
304.729944
 20
122.461540
 30
0.0
 10
302.445408
 20
122.014668
 30
0.0
 10
299.712456
 20
122.044108
 30
0.0
 10
296.930288
 20
122.513820
 30
0.0
 10
294.498104
 20
123.387612
 30
0.0
 10
294.498104
 20
123.387644
 30
0.0
  0
LWPOLYLINE
  5
101
100
AcDbEntity
  8
Layer_1
 62
7
100
AcDbPolyline
 90
498
 70
0
 10
305.929944
 20
145.379132
 30
0.0
 10
307.063792
 20
145.863268
 30
0.0
 10
308.376832
 20
146.466612
 30
0.0
 10
309.706336
 20
147.112252
 30
0.0
 10
310.889544
 20
147.723276
 30
0.0
 10
312.225944
 20
148.347228
 30
0.0
 10
313.972536
 20
149.028076
 30
0.0
 10
315.902896
 20
149.683516
 30
0.0
 10
317.790584
 20
150.231260
 30
0.0
 10
320.004912
 20
150.919100
 30
0.0
 10
322.824616
 20
151.955988
 30
0.0
 10
325.887424
 20
153.201372
 30
0.0
 10
328.831064
 20
154.514700
 30
0.0
 10
331.582472
 20
155.786484
 30
0.0
 10
334.121872
 20
156.918748
 30
0.0
 10
336.166952
 20
157.788212
 30
0.0
 10
337.435384
 20
158.271612
 30
0.0
 10
343.170272
 20
160.822436
 30
0.0
 10
353.455408
 20
165.805668
 30
0.0
 10
364.254168
 20
171.228924
 30
0.0
 10
371.529944
 20
175.099820
 30
0.0
 10
373.551504
 20
176.265052
 30
0.0
 10
375.507440
 20
177.368852
 30
0.0
 10
377.174632
 20
178.286724
 30
0.0
 10
378.329944
 20
178.894164
 30
0.0
 10
379.169632
 20
179.330756
 30
0.0
 10
379.977448
 20
179.783444
 30
0.0
 10
380.661504
 20
180.198780
 30
0.0
 10
381.129944
 20
180.523292
 30
0.0
 10
381.945568
 20
181.089244
 30
0.0
 10
383.574944
 20
182.161940
 30
0.0
 10
385.781816
 20
183.587524
 30
0.0
 10
388.329944
 20
185.212156
 30
0.0
 10
390.941192
 20
186.875052
 30
0.0
 10
393.319944
 20
188.404828
 30
0.0
 10
395.203696
 20
189.631732
 30
0.0
 10
396.329944
 20
190.385980
 30
0.0
 10
397.282600
 20
191.040260
 30
0.0
 10
398.693696
 20
191.994956
 30
0.0
 10
400.372912
 20
193.121884
 30
0.0
 10
402.129944
 20
194.292836
 30
0.0
 10
403.761920
 20
195.423668
 30
0.0
 10
405.100632
 20
196.441348
 30
0.0
 10
406.007784
 20
197.234372
 30
0.0
 10
406.345064
 20
197.691228
 30
0.0
 10
406.671408
 20
198.117428
 30
0.0
 10
407.549176
 20
198.826996
 30
0.0
 10
408.844464
 20
199.721164
 30
0.0
 10
410.423384
 20
200.701164
 30
0.0
 10
412.105304
 20
201.733652
 30
0.0
 10
413.681216
 20
202.770724
 30
0.0
 10
414.974432
 20
203.691788
 30
0.0
 10
415.808248
 20
204.376260
 30
0.0
 10
416.673592
 20
205.154492
 30
0.0
 10
418.052760
 20
206.330836
 30
0.0
 10
419.755904
 20
207.745716
 30
0.0
 10
421.593208
 20
209.239564
 30
0.0
 10
425.028632
 20
212.026244
 30
0.0
 10
427.765104
 20
214.371340
 30
0.0
 10
431.035632
 20
217.372196
 30
0.0
 10
436.073208
 20
222.126140
 30
0.0
 10
438.947248
 20
224.842772
 30
0.0
 10
441.639856
 20
227.379020
 30
0.0
 10
443.849136
 20
229.451092
 30
0.0
 10
445.273208
 20
230.775204
 30
0.0
 10
450.140000
 20
235.730348
 30
0.0
 10
456.097568
 20
242.460876
 30
0.0
 10
462.007136
 20
249.632708
 30
0.0
 10
466.729928
 20
255.911788
 30
0.0
 10
468.177584
 20
257.947340
 30
0.0
 10
469.753680
 20
260.090708
 30
0.0
 10
471.267896
 20
262.086956
 30
0.0
 10
472.529928
 20
263.681156
 30
0.0
 10
473.539464
 20
264.996756
 30
0.0
 10
474.366176
 20
266.234428
 30
0.0
 10
474.924776
 20
267.255108
 30
0.0
 10
475.129928
 20
267.919716
 30
0.0
 10
475.208808
 20
268.419196
 30
0.0
 10
475.423656
 20
268.990276
 30
0.0
 10
475.741624
 20
269.562556
 30
0.0
 10
476.129904
 20
270.065612
 30
0.0
 10
477.597256
 20
271.845676
 30
0.0
 10
479.095328
 20
273.951428
 30
0.0
 10
480.260688
 20
275.838092
 30
0.0
 10
480.729904
 20
276.960884
 30
0.0
 10
480.858400
 20
277.405556
 30
0.0
 10
481.208272
 20
278.080724
 30
0.0
 10
481.726104
 20
278.894684
 30
0.0
 10
482.358464
 20
279.755724
 30
0.0
 10
483.062000
 20
280.767716
 30
0.0
 10
483.773712
 20
281.992676
 30
0.0
 10
484.410568
 20
283.276132
 30
0.0
 10
484.889504
 20
284.463612
 30
0.0
 10
485.283728
 20
285.519284
 30
0.0
 10
485.690008
 20
286.443884
 30
0.0
 10
486.060496
 20
287.137732
 30
0.0
 10
486.347344
 20
287.501164
 30
0.0
 10
487.482240
 20
289.369116
 30
0.0
 10
489.668552
 20
293.803444
 30
0.0
 10
492.590720
 20
300.138908
 30
0.0
 10
495.933184
 20
307.710244
 30
0.0
 10
497.301080
 20
310.776940
 30
0.0
 10
498.527776
 20
313.354108
 30
0.0
 10
499.479136
 20
315.171156
 30
0.0
 10
500.021024
 20
315.957460
 30
0.0
 10
500.296248
 20
316.255116
 30
0.0
 10
500.521656
 20
316.741692
 30
0.0
 10
500.673960
 20
317.349764
 30
0.0
 10
500.729880
 20
318.011932
 30
0.0
 10
501.182272
 20
320.127460
 30
0.0
 10
502.409808
 20
323.788380
 30
0.0
 10
504.218040
 20
328.460892
 30
0.0
 10
506.412520
 20
333.611188
 30
0.0
 10
507.058152
 20
335.203348
 30
0.0
 10
507.725424
 20
337.091572
 30
0.0
 10
508.335664
 20
339.039604
 30
0.0
 10
508.810200
 20
340.811188
 30
0.0
 10
509.256136
 20
342.542532
 30
0.0
 10
509.788504
 20
344.380980
 30
0.0
 10
510.340512
 20
346.107036
 30
0.0
 10
510.845400
 20
347.501164
 30
0.0
 10
512.687424
 20
353.274964
 30
0.0
 10
515.010160
 20
361.886644
 30
0.0
 10
517.115848
 20
370.605580
 30
0.0
 10
518.306760
 20
376.701164
 30
0.0
 10
518.615136
 20
378.722724
 30
0.0
 10
518.995952
 20
380.678660
 30
0.0
 10
519.400808
 20
382.345852
 30
0.0
 10
519.781320
 20
383.501164
 30
0.0
 10
520.214208
 20
384.877412
 30
0.0
 10
520.761712
 20
387.146164
 30
0.0
 10
521.353656
 20
389.992412
 30
0.0
 10
521.919880
 20
393.101164
 30
0.0
 10
522.510480
 20
396.290100
 30
0.0
 10
523.168792
 20
399.354668
 30
0.0
 10
523.814480
 20
401.946540
 30
0.0
 10
524.367240
 20
403.717356
 30
0.0
 10
524.819928
 20
405.155492
 30
0.0
 10
525.193048
 20
406.841532
 30
0.0
 10
525.447928
 20
408.565492
 30
0.0
 10
525.545880
 20
410.117356
 30
0.0
 10
525.647904
 20
411.967788
 30
0.0
 10
525.913848
 20
414.504668
 30
0.0
 10
526.303352
 20
417.393852
 30
0.0
 10
526.776040
 20
420.301164
 30
0.0
 10
527.308624
 20
423.604292
 30
0.0
 10
527.861232
 20
427.571164
 30
0.0
 10
528.368576
 20
431.703036
 30
0.0
 10
528.765400
 20
435.501164
 30
0.0
 10
529.138120
 20
438.920540
 30
0.0
 10
529.579952
 20
442.021164
 30
0.0
 10
530.035624
 20
444.461788
 30
0.0
 10
530.449880
 20
445.901164
 30
0.0
 10
530.828200
 20
447.372100
 30
0.0
 10
531.186032
 20
449.898668
 30
0.0
 10
531.483072
 20
453.126476
 30
0.0
 10
531.679000
 20
456.701164
 30
0.0
 10
531.864856
 20
460.370540
 30
0.0
 10
532.134544
 20
463.856164
 30
0.0
 10
532.451896
 20
466.764292
 30
0.0
 10
532.780760
 20
468.701164
 30
0.0
 10
533.850984
 20
475.355908
 30
0.0
 10
534.701048
 20
485.518556
 30
0.0
 10
535.313352
 20
498.905772
 30
0.0
 10
535.670280
 20
515.234220
 30
0.0
 10
535.746360
 20
521.267484
 30
0.0
 10
535.822440
 20
527.300748
 30
0.0
 10
535.898600
 20
533.334012
 30
0.0
 10
535.974680
 20
539.367276
 30
0.0
 10
534.819064
 20
539.091132
 30
0.0
 10
533.663440
 20
538.814996
 30
0.0
 10
532.507824
 20
538.538852
 30
0.0
 10
531.352200
 20
538.262716
 30
0.0
 10
529.349120
 20
537.831588
 30
0.0
 10
527.312224
 20
537.474252
 30
0.0
 10
525.479768
 20
537.227884
 30
0.0
 10
524.090040
 20
537.129660
 30
0.0
 10
522.893352
 20
537.029788
 30
0.0
 10
521.586416
 20
536.778932
 30
0.0
 10
520.327272
 20
536.414948
 30
0.0
 10
519.273960
 20
535.975700
 30
0.0
 10
518.082976
 20
535.471452
 30
0.0
 10
516.449080
 20
534.930500
 30
0.0
 10
514.587544
 20
534.417716
 30
0.0
 10
512.713640
 20
533.998012
 30
0.0
 10
501.271704
 20
531.478972
 30
0.0
 10
484.684232
 20
527.563820
 30
0.0
 10
469.215504
 20
523.760804
 30
0.0
 10
461.129800
 20
521.578180
 30
0.0
 10
459.686328
 20
521.106836
 30
0.0
 10
458.121616
 20
520.715572
 30
0.0
 10
456.624264
 20
520.445132
 30
0.0
 10
455.382840
 20
520.336276
 30
0.0
 10
450.718352
 20
519.636932
 30
0.0
 10
443.175736
 20
518.052476
 30
0.0
 10
435.761016
 20
516.261316
 30
0.0
 10
431.480200
 20
514.941852
 30
0.0
 10
430.499464
 20
514.558628
 30
0.0
 10
428.975232
 20
514.089284
 30
0.0
 10
427.115888
 20
513.593276
 30
0.0
 10
425.129800
 20
513.130044
 30
0.0
 10
422.909744
 20
512.641540
 30
0.0
 10
420.413368
 20
512.076732
 30
0.0
 10
417.946352
 20
511.505564
 30
0.0
 10
415.814360
 20
510.997996
 30
0.0
 10
413.860888
 20
510.572116
 30
0.0
 10
411.880016
 20
510.223356
 30
0.0
 10
410.103168
 20
509.987708
 30
0.0
 10
408.761736
 20
509.901164
 30
0.0
 10
407.642712
 20
509.829484
 30
0.0
 10
406.471416
 20
509.634364
 30
0.0
 10
405.386760
 20
509.345588
 30
0.0
 10
404.527656
 20
508.992956
 30
0.0
 10
401.343584
 20
507.899436
 30
0.0
 10
395.608784
 20
506.397204
 30
0.0
 10
388.683952
 20
504.817524
 30
0.0
 10
381.929816
 20
503.491652
 30
0.0
 10
379.517448
 20
503.023652
 30
0.0
 10
377.088816
 20
502.474420
 30
0.0
 10
374.926648
 20
501.912388
 30
0.0
 10
373.313656
 20
501.406004
 30
0.0
 10
369.847000
 20
500.483964
 30
0.0
 10
366.488288
 20
500.569796
 30
0.0
 10
362.486784
 20
501.797476
 30
0.0
 10
357.091736
 20
504.300980
 30
0.0
 10
353.905592
 20
505.911628
 30
0.0
 10
351.116136
 20
507.340268
 30
0.0
 10
349.024000
 20
508.431692
 30
0.0
 10
347.929816
 20
509.030700
 30
0.0
 10
347.177656
 20
509.414348
 30
0.0
 10
346.016784
 20
509.919388
 30
0.0
 10
344.605608
 20
510.480180
 30
0.0
 10
343.102536
 20
511.031084
 30
0.0
 10
341.349072
 20
511.747236
 30
0.0
 10
339.256256
 20
512.757964
 30
0.0
 10
337.086576
 20
513.928908
 30
0.0
 10
335.102536
 20
515.125724
 30
0.0
 10
333.042728
 20
516.354700
 30
0.0
 10
330.666832
 20
517.613228
 30
0.0
 10
328.268840
 20
518.753572
 30
0.0
 10
326.142696
 20
519.627996
 30
0.0
 10
324.289752
 20
520.366188
 30
0.0
 10
322.635520
 20
521.135572
 30
0.0
 10
321.360392
 20
521.845076
 30
0.0
 10
320.644776
 20
522.403636
 30
0.0
 10
320.236904
 20
522.829780
 30
0.0
 10
319.799696
 20
523.178756
 30
0.0
 10
319.385584
 20
523.414548
 30
0.0
 10
319.047016
 20
523.501148
 30
0.0
 10
318.072272
 20
523.848332
 30
0.0
 10
315.926000
 20
524.793644
 30
0.0
 10
312.925168
 20
526.192708
 30
0.0
 10
309.386776
 20
527.901148
 30
0.0
 10
305.856320
 20
529.609588
 30
0.0
 10
302.877096
 20
531.008652
 30
0.0
 10
300.762776
 20
531.953964
 30
0.0
 10
299.827016
 20
532.301148
 30
0.0
 10
296.601760
 20
530.906788
 30
0.0
 10
289.816736
 20
527.686028
 30
0.0
 10
282.462552
 20
524.082316
 30
0.0
 10
277.529816
 20
521.539116
 30
0.0
 10
276.354448
 20
520.940260
 30
0.0
 10
274.632640
 20
520.140756
 30
0.0
 10
272.595856
 20
519.244996
 30
0.0
 10
270.475576
 20
518.357388
 30
0.0
 10
268.312232
 20
517.408532
 30
0.0
 10
266.158192
 20
516.346028
 30
0.0
 10
264.262856
 20
515.299732
 30
0.0
 10
262.875576
 20
514.399508
 30
0.0
 10
261.666176
 20
513.590684
 30
0.0
 10
260.255136
 20
512.793228
 30
0.0
 10
258.817880
 20
512.099012
 30
0.0
 10
257.529816
 20
511.599892
 30
0.0
 10
255.633256
 20
510.840428
 30
0.0
 10
252.539192
 20
509.437356
 30
0.0
 10
248.676088
 20
507.590796
 30
0.0
 10
244.472376
 20
505.500876
 30
0.0
 10
237.652088
 20
502.238276
 30
0.0
 10
232.935824
 20
500.627300
 30
0.0
 10
229.321360
 20
500.453180
 30
0.0
 10
225.806456
 20
501.501148
 30
0.0
 10
224.549872
 20
501.967084
 30
0.0
 10
223.251568
 20
502.348652
 30
0.0
 10
222.064608
 20
502.606460
 30
0.0
 10
221.142056
 20
502.701148
 30
0.0
 10
219.948192
 20
502.819284
 30
0.0
 10
218.022608
 20
503.140948
 30
0.0
 10
215.631168
 20
503.617012
 30
0.0
 10
213.039736
 20
504.198340
 30
0.0
 10
210.210952
 20
504.861452
 30
0.0
 10
207.173344
 20
505.560156
 30
0.0
 10
204.291456
 20
506.211332
 30
0.0
 10
201.929816
 20
506.731852
 30
0.0
 10
199.895600
 20
507.218388
 30
0.0
 10
197.905224
 20
507.777028
 30
0.0
 10
196.187088
 20
508.338780
 30
0.0
 10
194.969576
 20
508.834652
 30
0.0
 10
193.967512
 20
509.248756
 30
0.0
 10
192.836088
 20
509.587868
 30
0.0
 10
191.714064
 20
509.816996
 30
0.0
 10
190.740216
 20
509.901148
 30
0.0
 10
186.209920
 20
510.526228
 30
0.0
 10
179.025336
 20
511.999012
 30
0.0
 10
171.895592
 20
513.715852
 30
0.0
 10
167.529816
 20
515.073060
 30
0.0
 10
164.127536
 20
516.162572
 30
0.0
 10
158.019848
 20
517.689852
 30
0.0
 10
150.367144
 20
519.383308
 30
0.0
 10
142.329816
 20
520.971332
 30
0.0
 10
140.179504
 20
521.410884
 30
0.0
 10
137.577312
 20
522.008492
 30
0.0
 10
134.851376
 20
522.685660
 30
0.0
 10
132.329816
 20
523.363868
 30
0.0
 10
125.993848
 20
525.014980
 30
0.0
 10
116.632384
 20
527.287420
 30
0.0
 10
105.719640
 20
529.830996
 30
0.0
 10
94.729816
 20
532.295524
 30
0.0
 10
91.339504
 20
533.069852
 30
0.0
 10
88.022320
 20
533.882652
 30
0.0
 10
85.158888
 20
534.637396
 30
0.0
 10
83.129824
 20
535.237540
 30
0.0
 10
81.416384
 20
535.752124
 30
0.0
 10
79.412326
 20
536.273900
 30
0.0
 10
77.367014
 20
536.741908
 30
0.0
 10
75.529827
 20
537.095204
 30
0.0
 10
73.700732
 20
537.400940
 30
0.0
 10
71.677446
 20
537.739452
 30
0.0
 10
69.705971
 20
538.069564
 30
0.0
 10
68.032307
 20
538.350100
 30
0.0
 10
67.157947
 20
538.496780
 30
0.0
 10
66.283587
 20
538.643460
 30
0.0
 10
65.409227
 20
538.790140
 30
0.0
 10
64.534867
 20
538.936820
 30
0.0
 10
64.681527
 20
534.257364
 30
0.0
 10
64.828187
 20
529.577900
 30
0.0
 10
64.974847
 20
524.898444
 30
0.0
 10
65.121507
 20
520.218980
 30
0.0
 10
65.406550
 20
512.351508
 30
0.0
 10
65.748957
 20
504.767012
 30
0.0
 10
66.105646
 20
498.329036
 30
0.0
 10
66.433587
 20
493.901148
 30
0.0
 10
66.767741
 20
490.001436
 30
0.0
 10
67.141337
 20
485.001580
 30
0.0
 10
67.508738
 20
479.545492
 30
0.0
 10
67.824307
 20
474.277084
 30
0.0
 10
68.154031
 20
469.389324
 30
0.0
 10
68.559978
 20
464.969652
 30
0.0
 10
68.990629
 20
461.503700
 30
0.0
 10
69.394467
 20
459.477084
 30
0.0
 10
69.806203
 20
457.610180
 30
0.0
 10
70.258348
 20
454.579076
 30
0.0
 10
70.696093
 20
450.802996
 30
0.0
 10
71.064627
 20
446.701148
 30
0.0
 10
71.459189
 20
442.313332
 30
0.0
 10
71.967697
 20
437.758652
 30
0.0
 10
72.524551
 20
433.575212
 30
0.0
 10
73.064147
 20
430.301148
 30
0.0
 10
73.544601
 20
427.496196
 30
0.0
 10
73.940417
 20
424.590052
 30
0.0
 10
74.210578
 20
421.925756
 30
0.0
 10
74.314067
 20
419.846348
 30
0.0
 10
74.410566
 20
417.960644
 30
0.0
 10
74.661497
 20
415.823748
 30
0.0
 10
75.028814
 20
413.698148
 30
0.0
 10
75.474467
 20
411.846348
 30
0.0
 10
76.080545
 20
409.425028
 30
0.0
 10
76.884547
 20
405.748748
 30
0.0
 10
77.781730
 20
401.316828
 30
0.0
 10
78.667347
 20
396.628620
 30
0.0
 10
81.147272
 20
384.446548
 30
0.0
 10
84.245192
 20
371.044804
 30
0.0
 10
87.151496
 20
359.753092
 30
0.0
 10
89.056616
 20
353.901148
 30
0.0
 10
89.561600
 20
352.749044
 30
0.0
 10
90.107016
 20
351.090580
 30
0.0
 10
90.627232
 20
349.147556
 30
0.0
 10
91.056616
 20
347.141764
 30
0.0
 10
91.511328
 20
345.069644
 30
0.0
 10
92.100488
 20
342.946020
 30
0.0
 10
92.747952
 20
341.020268
 30
0.0
 10
93.377576
 20
339.541764
 30
0.0
 10
94.117120
 20
337.870684
 30
0.0
 10
95.063864
 20
335.420580
 30
0.0
 10
96.095944
 20
332.520916
 30
0.0
 10
97.091496
 20
329.501148
 30
0.0
 10
98.058728
 20
326.537972
 30
0.0
 10
99.013608
 20
323.792388
 30
0.0
 10
99.846072
 20
321.570332
 30
0.0
 10
100.446056
 20
320.177716
 30
0.0
 10
100.866864
 20
319.220932
 30
0.0
 10
101.211464
 20
318.185548
 30
0.0
 10
101.444304
 20
317.196244
 30
0.0
 10
101.529816
 20
316.377716
 30
0.0
 10
101.585256
 20
315.726740
 30
0.0
 10
101.736280
 20
315.193644
 30
0.0
 10
101.959800
 20
314.833436
 30
0.0
 10
102.232752
 20
314.701148
 30
0.0
 10
102.584048
 20
314.495988
 30
0.0
 10
103.020880
 20
313.937396
 30
0.0
 10
103.487608
 20
313.110676
 30
0.0
 10
103.928592
 20
312.101148
 30
0.0
 10
107.115232
 20
304.653084
 30
0.0
 10
111.499528
 20
295.295772
 30
0.0
 10
115.537424
 20
287.224476
 30
0.0
 10
117.684832
 20
283.634484
 30
0.0
 10
117.935256
 20
283.446020
 30
0.0
 10
118.140328
 20
283.130020
 30
0.0
 10
118.278896
 20
282.730532
 30
0.0
 10
118.329776
 20
282.291628
 30
0.0
 10
118.411152
 20
281.790348
 30
0.0
 10
118.632712
 20
281.221028
 30
0.0
 10
118.960632
 20
280.653676
 30
0.0
 10
119.361056
 20
280.158292
 30
0.0
 10
119.964944
 20
279.354396
 30
0.0
 10
120.846824
 20
277.947052
 30
0.0
 10
121.888264
 20
276.134556
 30
0.0
 10
122.970816
 20
274.115180
 30
0.0
 10
124.162880
 20
271.909836
 30
0.0
 10
125.502504
 20
269.590972
 30
0.0
 10
126.825704
 20
267.434212
 30
0.0
 10
127.968496
 20
265.715180
 30
0.0
 10
129.055856
 20
264.168636
 30
0.0
 10
130.228024
 20
262.481516
 30
0.0
 10
131.344112
 20
260.857724
 30
0.0
 10
132.263216
 20
259.501148
 30
0.0
 10
133.805424
 20
257.295452
 30
0.0
 10
135.767024
 20
254.657140
 30
0.0
 10
138.146304
 20
251.588444
 30
0.0
 10
140.941536
 20
248.091604
 30
0.0
 10
144.263400
 20
244.181596
 30
0.0
 10
148.321584
 20
239.663180
 30
0.0
 10
152.214824
 20
235.518260
 30
0.0
 10
155.041856
 20
232.728788
 30
0.0
 10
156.164992
 20
231.704180
 30
0.0
 10
157.218112
 20
230.709004
 30
0.0
 10
158.083112
 20
229.857012
 30
0.0
 10
158.641856
 20
229.261956
 30
0.0
 10
162.883200
 20
224.855396
 30
0.0
 10
169.093152
 20
218.937260
 30
0.0
 10
175.278240
 20
213.356852
 30
0.0
 10
179.444976
 20
209.963468
 30
0.0
 10
180.392024
 20
209.264308
 30
0.0
 10
181.725152
 20
208.201668
 30
0.0
 10
183.267296
 20
206.919932
 30
0.0
 10
184.841376
 20
205.563468
 30
0.0
 10
188.115656
 20
202.819724
 30
0.0
 10
191.870552
 20
199.967772
 30
0.0
 10
196.559336
 20
196.677860
 30
0.0
 10
202.635296
 20
192.620268
 30
0.0
 10
205.251680
 20
190.873508
 30
0.0
 10
207.574528
 20
189.274804
 30
0.0
 10
209.351384
 20
188.001052
 30
0.0
 10
210.329776
 20
187.229148
 30
0.0
 10
210.985088
 20
186.689436
 30
0.0
 10
211.882272
 20
186.047916
 30
0.0
 10
212.903216
 20
185.384924
 30
0.0
 10
213.929776
 20
184.780788
 30
0.0
 10
215.051024
 20
184.142716
 30
0.0
 10
216.329776
 20
183.387308
 30
0.0
 10
217.608528
 20
182.609028
 30
0.0
 10
218.729776
 20
181.902308
 30
0.0
 10
219.859104
 20
181.210140
 30
0.0
 10
221.159848
 20
180.471484
 30
0.0
 10
222.471136
 20
179.774724
 30
0.0
 10
223.632096
 20
179.208260
 30
0.0
 10
224.643712
 20
178.699412
 30
0.0
 10
225.548264
 20
178.159508
 30
0.0
 10
226.247032
 20
177.653004
 30
0.0
 10
226.641296
 20
177.244324
 30
0.0
 10
227.022368
 20
176.885428
 30
0.0
 10
227.685304
 20
176.514460
 30
0.0
 10
228.536840
 20
176.175164
 30
0.0
 10
229.483696
 20
175.911276
 30
0.0
 10
230.473256
 20
175.612444
 30
0.0
 10
231.441064
 20
175.177996
 30
0.0
 10
232.276112
 20
174.666212
 30
0.0
 10
232.867376
 20
174.135364
 30
0.0
 10
236.345024
 20
171.969492
 30
0.0
 10
243.574904
 20
168.153764
 30
0.0
 10
252.016616
 20
163.982828
 30
0.0
 10
259.129776
 20
160.751340
 30
0.0
 10
264.462848
 20
158.518804
 30
0.0
 10
268.227032
 20
156.890724
 30
0.0
 10
271.441888
 20
155.413444
 30
0.0
 10
275.126976
 20
153.633284
 30
0.0
 10
277.550496
 20
152.493236
 30
0.0
 10
279.715832
 20
151.556684
 30
0.0
 10
281.386744
 20
150.920476
 30
0.0
 10
282.326976
 20
150.681476
 30
0.0
 10
284.534560
 20
150.219332
 30
0.0
 10
288.043328
 20
149.103460
 30
0.0
 10
291.856640
 20
147.679556
 30
0.0
 10
294.977856
 20
146.293316
 30
0.0
 10
297.709904
 20
145.237940
 30
0.0
 10
300.605208
 20
144.720468
 30
0.0
 10
303.424808
 20
144.760868
 30
0.0
 10
305.929776
 20
145.379108
 30
0.0
 10
305.929944
 20
145.379132
 30
0.0
  0
LWPOLYLINE
  5
102
100
AcDbEntity
  8
Layer_1
 62
7
100
AcDbPolyline
 90
166
 70
0
 10
358.741784
 20
263.322428
 30
0.0
 10
357.439848
 20
264.012556
 30
0.0
 10
356.251704
 20
264.576716
 30
0.0
 10
355.308600
 20
264.956764
 30
0.0
 10
354.741784
 20
265.094548
 30
0.0
 10
351.574040
 20
266.222404
 30
0.0
 10
346.392552
 20
268.955716
 30
0.0
 10
340.971504
 20
272.280708
 30
0.0
 10
337.085064
 20
275.183620
 30
0.0
 10
335.569472
 20
276.549420
 30
0.0
 10
334.235152
 20
277.667892
 30
0.0
 10
333.226384
 20
278.423612
 30
0.0
 10
332.687464
 20
278.701164
 30
0.0
 10
332.249776
 20
279.001004
 30
0.0
 10
331.516536
 20
279.817412
 30
0.0
 10
330.589960
 20
281.025692
 30
0.0
 10
329.572264
 20
282.501164
 30
0.0
 10
328.386672
 20
284.288516
 30
0.0
 10
327.002856
 20
286.345980
 30
0.0
 10
325.592856
 20
288.419180
 30
0.0
 10
324.328744
 20
290.253740
 30
0.0
 10
323.180456
 20
292.134436
 30
0.0
 10
322.121480
 20
294.287108
 30
0.0
 10
321.259336
 20
296.469156
 30
0.0
 10
320.701544
 20
298.437956
 30
0.0
 10
320.254184
 20
300.287420
 30
0.0
 10
319.685568
 20
302.194940
 30
0.0
 10
319.068672
 20
303.935820
 30
0.0
 10
318.476504
 20
305.285380
 30
0.0
 10
317.390592
 20
310.649604
 30
0.0
 10
317.020832
 20
319.071916
 30
0.0
 10
317.370912
 20
327.454908
 30
0.0
 10
318.444504
 20
332.701164
 30
0.0
 10
319.024448
 20
333.991988
 30
0.0
 10
319.640200
 20
335.732444
 30
0.0
 10
320.218248
 20
337.694516
 30
0.0
 10
320.685064
 20
339.650188
 30
0.0
 10
321.304008
 20
341.942100
 30
0.0
 10
322.216936
 20
344.214108
 30
0.0
 10
323.436768
 20
346.493796
 30
0.0
 10
324.976424
 20
348.808764
 30
0.0
 10
328.171664
 20
352.831828
 30
0.0
 10
331.556560
 20
356.534852
 30
0.0
 10
334.473168
 20
359.247932
 30
0.0
 10
336.263544
 20
360.301164
 30
0.0
 10
336.729904
 20
360.432660
 30
0.0
 10
337.326168
 20
360.790692
 30
0.0
 10
337.975616
 20
361.320580
 30
0.0
 10
338.601544
 20
361.967644
 30
0.0
 10
339.364128
 20
362.952820
 30
0.0
 10
339.528104
 20
363.700164
 30
0.0
 10
339.023264
 20
364.535796
 30
0.0
 10
337.779384
 20
365.785844
 30
0.0
 10
331.612296
 20
372.928244
 30
0.0
 10
326.585568
 20
381.257420
 30
0.0
 10
322.995768
 20
390.179644
 30
0.0
 10
321.139464
 20
399.101164
 30
0.0
 10
321.032480
 20
403.716220
 30
0.0
 10
321.451960
 20
409.128260
 30
0.0
 10
322.301072
 20
414.513220
 30
0.0
 10
323.482984
 20
419.047028
 30
0.0
 10
325.296840
 20
423.662468
 30
0.0
 10
327.549200
 20
428.486500
 30
0.0
 10
329.803136
 20
432.647908
 30
0.0
 10
331.621704
 20
435.275468
 30
0.0
 10
332.552672
 20
436.331492
 30
0.0
 10
333.708912
 20
437.719380
 30
0.0
 10
334.943232
 20
439.258852
 30
0.0
 10
336.108424
 20
440.769636
 30
0.0
 10
337.178936
 20
442.123604
 30
0.0
 10
338.155552
 20
443.236100
 30
0.0
 10
338.930408
 20
443.992068
 30
0.0
 10
339.395624
 20
444.276428
 30
0.0
 10
339.917080
 20
444.499508
 30
0.0
 10
340.845064
 20
445.088628
 30
0.0
 10
342.048328
 20
445.954204
 30
0.0
 10
343.395624
 20
447.006644
 30
0.0
 10
350.554208
 20
451.458572
 30
0.0
 10
359.645808
 20
455.186940
 30
0.0
 10
369.347032
 20
457.748780
 30
0.0
 10
378.334504
 20
458.701164
 30
0.0
 10
386.103616
 20
457.999516
 30
0.0
 10
394.353784
 20
456.035548
 30
0.0
 10
402.393168
 20
453.020716
 30
0.0
 10
409.529944
 20
449.166484
 30
0.0
 10
414.175360
 20
445.554908
 30
0.0
 10
419.406232
 20
440.706708
 30
0.0
 10
423.815384
 20
436.014524
 30
0.0
 10
425.995608
 20
432.871004
 30
0.0
 10
426.328456
 20
432.033268
 30
0.0
 10
426.824848
 20
431.060612
 30
0.0
 10
427.417720
 20
430.073724
 30
0.0
 10
428.040008
 20
429.193276
 30
0.0
 10
428.618512
 20
428.386236
 30
0.0
 10
429.092256
 20
427.599220
 30
0.0
 10
429.412360
 20
426.922372
 30
0.0
 10
429.529928
 20
426.445860
 30
0.0
 10
429.655240
 20
425.861028
 30
0.0
 10
429.996432
 20
424.889284
 30
0.0
 10
430.501392
 20
423.665804
 30
0.0
 10
431.118008
 20
422.325788
 30
0.0
 10
432.561128
 20
418.586052
 30
0.0
 10
433.560640
 20
414.177452
 30
0.0
 10
434.141816
 20
408.945876
 30
0.0
 10
434.329928
 20
402.737172
 30
0.0
 10
433.485392
 20
393.076412
 30
0.0
 10
430.870392
 20
384.284764
 30
0.0
 10
426.362832
 20
376.070748
 30
0.0
 10
419.840648
 20
368.142884
 30
0.0
 10
418.011568
 20
366.217292
 30
0.0
 10
416.513704
 20
364.600060
 30
0.0
 10
415.501632
 20
363.460940
 30
0.0
 10
415.129928
 20
362.969668
 30
0.0
 10
415.213104
 20
362.865412
 30
0.0
 10
415.439568
 20
362.780036
 30
0.0
 10
415.774752
 20
362.722356
 30
0.0
 10
416.184088
 20
362.701156
 30
0.0
 10
418.076720
 20
361.519740
 30
0.0
 10
421.312288
 20
358.679268
 30
0.0
 10
424.766912
 20
355.235444
 30
0.0
 10
427.316728
 20
352.243948
 30
0.0
 10
427.975480
 20
351.330724
 30
0.0
 10
428.743968
 20
350.280396
 30
0.0
 10
429.526680
 20
349.222772
 30
0.0
 10
430.228088
 20
348.287676
 30
0.0
 10
434.098856
 20
340.716876
 30
0.0
 10
436.867408
 20
330.640076
 30
0.0
 10
438.155400
 20
319.990444
 30
0.0
 10
437.584488
 20
310.701156
 30
0.0
 10
436.167600
 20
304.086684
 30
0.0
 10
434.959472
 20
299.273020
 30
0.0
 10
433.814904
 20
295.745436
 30
0.0
 10
432.588728
 20
292.989188
 30
0.0
 10
429.783880
 20
288.059228
 30
0.0
 10
426.717048
 20
283.515620
 30
0.0
 10
423.621352
 20
279.675524
 30
0.0
 10
420.729928
 20
276.856108
 30
0.0
 10
419.083936
 20
275.498172
 30
0.0
 10
417.263496
 20
273.963276
 30
0.0
 10
415.489936
 20
272.439764
 30
0.0
 10
413.984568
 20
271.115996
 30
0.0
 10
412.652256
 20
270.023044
 30
0.0
 10
411.349776
 20
269.128020
 30
0.0
 10
410.226520
 20
268.523268
 30
0.0
 10
409.431864
 20
268.301156
 30
0.0
 10
408.849320
 20
268.242836
 30
0.0
 10
408.303688
 20
268.084100
 30
0.0
 10
407.856120
 20
267.849172
 30
0.0
 10
407.567784
 20
267.562300
 30
0.0
 10
407.059792
 20
267.167556
 30
0.0
 10
406.014272
 20
266.638940
 30
0.0
 10
404.583688
 20
266.045532
 30
0.0
 10
402.920504
 20
265.456444
 30
0.0
 10
401.214088
 20
264.862844
 30
0.0
 10
399.665712
 20
264.257116
 30
0.0
 10
398.445848
 20
263.710244
 30
0.0
 10
397.724984
 20
263.293228
 30
0.0
 10
395.564224
 20
262.261052
 30
0.0
 10
391.800608
 20
261.637876
 30
0.0
 10
385.750416
 20
261.360996
 30
0.0
 10
376.729944
 20
261.367396
 30
0.0
 10
368.584568
 20
261.510884
 30
0.0
 10
363.727560
 20
261.791460
 30
0.0
 10
360.874704
 20
262.348676
 30
0.0
 10
358.741784
 20
263.322084
 30
0.0
 10
358.741784
 20
263.322428
 30
0.0
  0
LWPOLYLINE
  5
103
100
AcDbEntity
  8
Layer_1
 62
7
100
AcDbPolyline
 90
65
 70
0
 10
382.763944
 20
290.716036
 30
0.0
 10
385.722264
 20
291.132332
 30
0.0
 10
388.140416
 20
291.756988
 30
0.0
 10
390.370328
 20
292.709428
 30
0.0
 10
392.763944
 20
294.109060
 30
0.0
 10
395.757944
 20
296.127644
 30
0.0
 10
397.944088
 20
298.005892
 30
0.0
 10
400.051752
 20
300.483748
 30
0.0
 10
402.810344
 20
304.301164
 30
0.0
 10
403.583480
 20
305.401164
 30
0.0
 10
404.356624
 20
306.501164
 30
0.0
 10
405.129760
 20
307.601164
 30
0.0
 10
405.902904
 20
308.701164
 30
0.0
 10
405.906104
 20
311.301164
 30
0.0
 10
405.909304
 20
313.901164
 30
0.0
 10
405.912504
 20
316.501164
 30
0.0
 10
405.915704
 20
319.101164
 30
0.0
 10
405.866344
 20
324.700308
 30
0.0
 10
405.630328
 20
328.302404
 30
0.0
 10
405.102896
 20
330.736076
 30
0.0
 10
404.179248
 20
332.829932
 30
0.0
 10
402.022384
 20
336.050532
 30
0.0
 10
398.904920
 20
339.694588
 30
0.0
 10
395.477656
 20
343.064628
 30
0.0
 10
392.391408
 20
345.463156
 30
0.0
 10
387.517984
 20
347.622988
 30
0.0
 10
381.712200
 20
348.785988
 30
0.0
 10
375.471760
 20
348.899428
 30
0.0
 10
369.294368
 20
347.910564
 30
0.0
 10
365.814416
 20
346.692036
 30
0.0
 10
362.165280
 20
344.955868
 30
0.0
 10
359.172168
 20
343.142980
 30
0.0
 10
357.660288
 20
341.694300
 30
0.0
 10
357.308800
 20
341.193716
 30
0.0
 10
356.550600
 20
340.279364
 30
0.0
 10
355.497240
 20
339.081324
 30
0.0
 10
354.260288
 20
337.729692
 30
0.0
 10
353.044560
 20
336.326724
 30
0.0
 10
352.048992
 20
334.988932
 30
0.0
 10
351.376304
 20
333.867732
 30
0.0
 10
351.129248
 20
333.114564
 30
0.0
 10
351.018776
 20
332.470268
 30
0.0
 10
350.718000
 20
331.645492
 30
0.0
 10
350.272840
 20
330.746404
 30
0.0
 10
349.729248
 20
329.879172
 30
0.0
 10
349.043000
 20
328.550068
 30
0.0
 10
348.613696
 20
326.677620
 30
0.0
 10
348.392168
 20
323.911452
 30
0.0
 10
348.329288
 20
319.901164
 30
0.0
 10
348.420304
 20
314.950404
 30
0.0
 10
348.968960
 20
311.447132
 30
0.0
 10
350.388680
 20
307.913388
 30
0.0
 10
353.092888
 20
302.871172
 30
0.0
 10
354.575544
 20
300.655812
 30
0.0
 10
356.545720
 20
298.488588
 30
0.0
 10
359.014936
 20
296.358372
 30
0.0
 10
361.994728
 20
294.253996
 30
0.0
 10
366.206032
 20
292.087076
 30
0.0
 10
370.899744
 20
290.804316
 30
0.0
 10
376.333096
 20
290.361908
 30
0.0
 10
382.763288
 20
290.716036
 30
0.0
 10
382.763264
 20
290.716036
 30
0.0
 10
382.763248
 20
290.716036
 30
0.0
 10
382.763224
 20
290.716036
 30
0.0
 10
382.763944
 20
290.716036
 30
0.0
  0
LWPOLYLINE
  5
104
100
AcDbEntity
  8
Layer_1
 62
7
100
AcDbPolyline
 90
53
 70
0
 10
386.329944
 20
377.244700
 30
0.0
 10
391.176688
 20
379.720060
 30
0.0
 10
396.242784
 20
383.947156
 30
0.0
 10
400.468944
 20
388.881588
 30
0.0
 10
402.795864
 20
393.478964
 30
0.0
 10
403.050520
 20
394.304708
 30
0.0
 10
403.365944
 20
395.046964
 30
0.0
 10
403.702008
 20
395.624468
 30
0.0
 10
404.018584
 20
395.955940
 30
0.0
 10
404.638912
 20
398.264876
 30
0.0
 10
404.712512
 20
402.737620
 30
0.0
 10
404.310648
 20
407.394052
 30
0.0
 10
403.504472
 20
410.254068
 30
0.0
 10
403.048416
 20
410.975460
 30
0.0
 10
402.674944
 20
411.791700
 30
0.0
 10
402.422592
 20
412.602572
 30
0.0
 10
402.329912
 20
413.307876
 30
0.0
 10
401.078496
 20
416.390748
 30
0.0
 10
397.930608
 20
420.328252
 30
0.0
 10
393.795816
 20
424.151164
 30
0.0
 10
389.583672
 20
426.890268
 30
0.0
 10
384.548288
 20
428.320956
 30
0.0
 10
378.255424
 20
428.796772
 30
0.0
 10
371.866808
 20
428.317932
 30
0.0
 10
366.544152
 20
426.884668
 30
0.0
 10
362.845664
 20
424.812564
 30
0.0
 10
359.468440
 20
421.947708
 30
0.0
 10
356.419432
 20
418.297132
 30
0.0
 10
353.705592
 20
413.867876
 30
0.0
 10
352.372264
 20
411.138348
 30
0.0
 10
351.589368
 20
408.836228
 30
0.0
 10
351.219072
 20
406.394524
 30
0.0
 10
351.123512
 20
403.246236
 30
0.0
 10
351.218832
 20
399.964268
 30
0.0
 10
351.667040
 20
397.349892
 30
0.0
 10
352.693480
 20
394.577188
 30
0.0
 10
354.523512
 20
390.820236
 30
0.0
 10
356.087128
 20
387.952436
 30
0.0
 10
357.555176
 20
385.645284
 30
0.0
 10
358.859472
 20
383.996084
 30
0.0
 10
359.931832
 20
383.102140
 30
0.0
 10
360.829800
 20
382.565948
 30
0.0
 10
361.794904
 20
381.872980
 30
0.0
 10
362.711272
 20
381.112748
 30
0.0
 10
363.463032
 20
380.374732
 30
0.0
 10
367.350880
 20
378.119660
 30
0.0
 10
373.363360
 20
376.722292
 30
0.0
 10
380.142400
 20
376.368540
 30
0.0
 10
386.329912
 20
377.244332
 30
0.0
 10
386.329912
 20
377.244428
 30
0.0
 10
386.329912
 20
377.244516
 30
0.0
 10
386.329912
 20
377.244612
 30
0.0
 10
386.329944
 20
377.244700
 30
0.0
  0
LWPOLYLINE
  5
105
100
AcDbEntity
  8
Layer_1
 62
7
100
AcDbPolyline
 90
178
 70
0
 10
202.329944
 20
264.250716
 30
0.0
 10
199.937128
 20
265.323196
 30
0.0
 10
197.857440
 20
266.290740
 30
0.0
 10
196.314008
 20
267.047164
 30
0.0
 10
195.529944
 20
267.486316
 30
0.0
 10
195.038096
 20
267.760428
 30
0.0
 10
194.290296
 20
268.067492
 30
0.0
 10
193.388160
 20
268.369980
 30
0.0
 10
192.433304
 20
268.630348
 30
0.0
 10
191.456240
 20
268.919620
 30
0.0
 10
190.493632
 20
269.300796
 30
0.0
 10
189.656320
 20
269.724332
 30
0.0
 10
189.055144
 20
270.140660
 30
0.0
 10
188.102256
 20
270.987044
 30
0.0
 10
186.307200
 20
272.581516
 30
0.0
 10
183.927120
 20
274.695684
 30
0.0
 10
181.219144
 20
277.101164
 30
0.0
 10
178.591176
 20
279.489364
 30
0.0
 10
176.428984
 20
281.556444
 30
0.0
 10
174.956424
 20
283.081228
 30
0.0
 10
174.397304
 20
283.842508
 30
0.0
 10
174.094560
 20
284.545300
 30
0.0
 10
173.319744
 20
285.910812
 30
0.0
 10
172.190208
 20
287.742172
 30
0.0
 10
170.823304
 20
289.842508
 30
0.0
 10
169.312432
 20
292.326220
 30
0.0
 10
167.790888
 20
295.201436
 30
0.0
 10
166.435808
 20
298.111844
 30
0.0
 10
165.424344
 20
300.701164
 30
0.0
 10
164.420976
 20
304.074772
 30
0.0
 10
163.848968
 20
307.507876
 30
0.0
 10
163.591312
 20
312.137628
 30
0.0
 10
163.530992
 20
319.101164
 30
0.0
 10
163.585472
 20
326.319772
 30
0.0
 10
163.863472
 20
330.933668
 30
0.0
 10
164.536768
 20
334.399108
 30
0.0
 10
165.777144
 20
338.172340
 30
0.0
 10
168.824512
 20
345.079036
 30
0.0
 10
172.722536
 20
351.192052
 30
0.0
 10
177.443200
 20
356.474356
 30
0.0
 10
182.958504
 20
360.888924
 30
0.0
 10
184.129560
 20
361.679804
 30
0.0
 10
185.121560
 20
362.356556
 30
0.0
 10
185.829800
 20
362.847284
 30
0.0
 10
186.149544
 20
363.080084
 30
0.0
 10
185.996560
 20
363.405044
 30
0.0
 10
185.417640
 20
364.146700
 30
0.0
 10
184.504680
 20
365.194836
 30
0.0
 10
183.349544
 20
366.439220
 30
0.0
 10
178.996552
 20
371.070188
 30
0.0
 10
176.223944
 20
374.221604
 30
0.0
 10
174.658640
 20
376.347316
 30
0.0
 10
173.927544
 20
377.901164
 30
0.0
 10
173.570128
 20
378.828268
 30
0.0
 10
173.053616
 20
379.874108
 30
0.0
 10
172.447144
 20
380.910444
 30
0.0
 10
171.819864
 20
381.809052
 30
0.0
 10
171.241360
 20
382.733844
 30
0.0
 10
170.767616
 20
383.841476
 30
0.0
 10
170.447512
 20
384.992828
 30
0.0
 10
170.329944
 20
386.048780
 30
0.0
 10
170.220272
 20
387.156212
 30
0.0
 10
169.921664
 20
388.447724
 30
0.0
 10
169.479712
 20
389.762788
 30
0.0
 10
168.940024
 20
390.940892
 30
0.0
 10
167.840328
 20
395.838324
 30
0.0
 10
167.482832
 20
403.427388
 30
0.0
 10
167.863736
 20
411.187692
 30
0.0
 10
168.979224
 20
416.598860
 30
0.0
 10
169.503824
 20
417.914356
 30
0.0
 10
169.933416
 20
419.206228
 30
0.0
 10
170.223664
 20
420.325956
 30
0.0
 10
170.330264
 20
421.125036
 30
0.0
 10
170.982992
 20
423.530380
 30
0.0
 10
172.665144
 20
427.120356
 30
0.0
 10
174.962656
 20
431.106700
 30
0.0
 10
177.461464
 20
434.701164
 30
0.0
 10
181.004016
 20
438.928844
 30
0.0
 10
184.826888
 20
443.081324
 30
0.0
 10
188.048952
 20
446.243724
 30
0.0
 10
189.789064
 20
447.501164
 30
0.0
 10
190.205272
 20
447.591284
 30
0.0
 10
190.735840
 20
447.836660
 30
0.0
 10
191.312584
 20
448.199820
 30
0.0
 10
191.867304
 20
448.643276
 30
0.0
 10
197.688096
 20
452.151684
 30
0.0
 10
206.266032
 20
455.393876
 30
0.0
 10
215.696888
 20
457.775244
 30
0.0
 10
224.076424
 20
458.701164
 30
0.0
 10
230.312920
 20
458.145076
 30
0.0
 10
237.600280
 20
456.657868
 30
0.0
 10
244.851976
 20
454.511116
 30
0.0
 10
250.981464
 20
451.976396
 30
0.0
 10
255.541104
 20
449.280468
 30
0.0
 10
260.203984
 20
445.916588
 30
0.0
 10
264.132040
 20
442.542076
 30
0.0
 10
266.487224
 20
439.814300
 30
0.0
 10
267.169456
 20
438.780460
 30
0.0
 10
267.906072
 20
437.865572
 30
0.0
 10
268.608448
 20
437.168868
 30
0.0
 10
269.187944
 20
436.789604
 30
0.0
 10
269.774568
 20
436.343524
 30
0.0
 10
270.496344
 20
435.464908
 30
0.0
 10
271.261680
 20
434.280772
 30
0.0
 10
271.978984
 20
432.918156
 30
0.0
 10
272.755736
 20
431.336612
 30
0.0
 10
273.682944
 20
429.556372
 30
0.0
 10
274.644288
 20
427.795516
 30
0.0
 10
275.523464
 20
426.272108
 30
0.0
 10
277.550528
 20
422.044524
 30
0.0
 10
278.916528
 20
417.064508
 30
0.0
 10
279.687616
 20
410.989836
 30
0.0
 10
279.929944
 20
403.478284
 30
0.0
 10
279.705248
 20
396.277692
 30
0.0
 10
278.974528
 20
390.567132
 30
0.0
 10
277.652832
 20
385.917868
 30
0.0
 10
275.655224
 20
381.901164
 30
0.0
 10
274.860176
 20
380.582308
 30
0.0
 10
273.968512
 20
379.061236
 30
0.0
 10
273.089288
 20
377.526132
 30
0.0
 10
272.331544
 20
376.165228
 30
0.0
 10
271.457176
 20
374.747732
 30
0.0
 10
270.260416
 20
373.058548
 30
0.0
 10
268.898824
 20
371.309420
 30
0.0
 10
267.529944
 20
369.712100
 30
0.0
 10
266.205016
 20
368.245236
 30
0.0
 10
264.963080
 20
366.851316
 30
0.0
 10
263.943424
 20
365.687852
 30
0.0
 10
263.285304
 20
364.912316
 30
0.0
 10
262.978680
 20
364.002012
 30
0.0
 10
263.639008
 20
362.627476
 30
0.0
 10
265.598960
 20
360.321372
 30
0.0
 10
269.191224
 20
356.616388
 30
0.0
 10
273.746744
 20
351.617852
 30
0.0
 10
277.111320
 20
347.049828
 30
0.0
 10
279.198560
 20
343.048084
 30
0.0
 10
279.922104
 20
339.748380
 30
0.0
 10
279.985704
 20
339.031348
 30
0.0
 10
280.148632
 20
338.374764
 30
0.0
 10
280.387136
 20
337.851284
 30
0.0
 10
280.677480
 20
337.533588
 30
0.0
 10
281.985544
 20
335.385724
 30
0.0
 10
283.089072
 20
331.113452
 30
0.0
 10
283.851720
 20
325.443140
 30
0.0
 10
284.137160
 20
319.101164
 30
0.0
 10
283.993248
 20
313.383900
 30
0.0
 10
283.507464
 20
308.686964
 30
0.0
 10
282.598704
 20
304.497124
 30
0.0
 10
281.185880
 20
300.301164
 30
0.0
 10
280.683936
 20
298.942484
 30
0.0
 10
280.118520
 20
297.312948
 30
0.0
 10
279.558928
 20
295.617340
 30
0.0
 10
279.074440
 20
294.060428
 30
0.0
 10
278.339176
 20
291.958532
 30
0.0
 10
277.401688
 20
290.120812
 30
0.0
 10
276.068160
 20
288.228956
 30
0.0
 10
274.144760
 20
285.964652
 30
0.0
 10
273.656032
 20
285.350772
 30
0.0
 10
273.075552
 20
284.519468
 30
0.0
 10
272.475968
 20
283.579796
 30
0.0
 10
271.929960
 20
282.640820
 30
0.0
 10
268.051872
 20
277.912804
 30
0.0
 10
261.947776
 20
272.784436
 30
0.0
 10
255.034768
 20
268.301988
 30
0.0
 10
248.729960
 20
265.511732
 30
0.0
 10
247.819600
 20
265.203452
 30
0.0
 10
246.819360
 20
264.790732
 30
0.0
 10
245.850504
 20
264.327524
 30
0.0
 10
245.034280
 20
263.867764
 30
0.0
 10
242.141520
 20
262.508492
 30
0.0
 10
238.162360
 20
261.715268
 30
0.0
 10
232.143088
 20
261.380508
 30
0.0
 10
223.129960
 20
261.396588
 30
0.0
 10
214.481424
 20
261.560932
 30
0.0
 10
209.430856
 20
261.913156
 30
0.0
 10
206.029840
 20
262.720628
 30
0.0
 10
202.329960
 20
264.250700
 30
0.0
 10
202.329944
 20
264.250716
 30
0.0
  0
LWPOLYLINE
  5
106
100
AcDbEntity
  8
Layer_1
 62
7
100
AcDbPolyline
 90
62
 70
0
 10
229.529944
 20
290.684036
 30
0.0
 10
233.601880
 20
291.726684
 30
0.0
 10
237.841320
 20
293.714676
 30
0.0
 10
241.902896
 20
296.451436
 30
0.0
 10
245.441224
 20
299.740404
 30
0.0
 10
248.970904
 20
304.064956
 30
0.0
 10
250.996432
 20
308.075140
 30
0.0
 10
251.920712
 20
312.990140
 30
0.0
 10
252.146664
 20
320.029164
 30
0.0
 10
252.102184
 20
325.303300
 30
0.0
 10
251.877848
 20
328.527484
 30
0.0
 10
251.362416
 20
330.479476
 30
0.0
 10
250.444640
 20
331.937052
 30
0.0
 10
249.778840
 20
332.859780
 30
0.0
 10
249.233608
 20
333.760724
 30
0.0
 10
248.865216
 20
334.536612
 30
0.0
 10
248.729920
 20
335.084180
 30
0.0
 10
247.463080
 20
337.306500
 30
0.0
 10
244.350952
 20
340.522252
 30
0.0
 10
240.426104
 20
343.781340
 30
0.0
 10
236.721120
 20
346.133660
 30
0.0
 10
229.930928
 20
348.373876
 30
0.0
 10
222.601264
 20
348.946196
 30
0.0
 10
215.304592
 20
347.870316
 30
0.0
 10
208.613360
 20
345.165940
 30
0.0
 10
205.156808
 20
342.659796
 30
0.0
 10
201.538512
 20
339.260020
 30
0.0
 10
198.686784
 20
335.931908
 30
0.0
 10
197.529920
 20
333.640764
 30
0.0
 10
197.419448
 20
333.054700
 30
0.0
 10
197.118672
 20
332.364772
 30
0.0
 10
196.673512
 20
331.657060
 30
0.0
 10
196.129920
 20
331.017620
 30
0.0
 10
195.426672
 20
329.950020
 30
0.0
 10
194.955768
 20
328.173956
 30
0.0
 10
194.654416
 20
325.312412
 30
0.0
 10
194.459840
 20
320.988348
 30
0.0
 10
194.371904
 20
316.259324
 30
0.0
 10
194.540168
 20
313.143596
 30
0.0
 10
195.068096
 20
310.835420
 30
0.0
 10
196.059120
 20
308.529036
 30
0.0
 10
196.816744
 20
307.011180
 30
0.0
 10
197.497704
 20
305.708100
 30
0.0
 10
198.027456
 20
304.758516
 30
0.0
 10
198.331440
 20
304.301164
 30
0.0
 10
198.672240
 20
303.874188
 30
0.0
 10
199.302312
 20
303.007332
 30
0.0
 10
200.131744
 20
301.826676
 30
0.0
 10
201.070640
 20
300.458316
 30
0.0
 10
204.142376
 20
297.066700
 30
0.0
 10
208.267256
 20
294.169796
 30
0.0
 10
213.074616
 20
291.978748
 30
0.0
 10
218.193760
 20
290.704716
 30
0.0
 10
220.328816
 20
290.412044
 30
0.0
 10
222.197416
 20
290.185748
 30
0.0
 10
223.598240
 20
290.048236
 30
0.0
 10
224.329920
 20
290.021916
 30
0.0
 10
224.987736
 20
290.101676
 30
0.0
 10
226.187416
 20
290.253116
 30
0.0
 10
227.758360
 20
290.454476
 30
0.0
 10
229.529920
 20
290.684020
 30
0.0
 10
229.529944
 20
290.684036
 30
0.0
  0
LWPOLYLINE
  5
107
100
AcDbEntity
  8
Layer_1
 62
7
100
AcDbPolyline
 90
61
 70
0
 10
231.529944
 20
377.044132
 30
0.0
 10
233.685152
 20
377.707276
 30
0.0
 10
235.783792
 20
378.624596
 30
0.0
 10
237.721888
 20
379.743628
 30
0.0
 10
239.395464
 20
381.011916
 30
0.0
 10
241.943400
 20
383.357748
 30
0.0
 10
244.032144
 20
385.493428
 30
0.0
 10
245.557608
 20
387.305268
 30
0.0
 10
246.415704
 20
388.679580
 30
0.0
 10
246.749624
 20
389.403900
 30
0.0
 10
247.133664
 20
390.177324
 30
0.0
 10
247.520344
 20
390.907276
 30
0.0
 10
247.862184
 20
391.501164
 30
0.0
 10
249.074248
 20
394.313740
 30
0.0
 10
250.128280
 20
398.111748
 30
0.0
 10
250.791392
 20
401.870308
 30
0.0
 10
250.830672
 20
404.564532
 30
0.0
 10
249.856056
 20
408.838332
 30
0.0
 10
248.682032
 20
412.409924
 30
0.0
 10
247.221624
 20
415.499212
 30
0.0
 10
245.387872
 20
418.326092
 30
0.0
 10
241.015184
 20
423.376708
 30
0.0
 10
236.452008
 20
426.561652
 30
0.0
 10
230.992280
 20
428.222284
 30
0.0
 10
223.929952
 20
428.699964
 30
0.0
 10
216.119752
 20
428.060612
 30
0.0
 10
210.089960
 20
425.883492
 30
0.0
 10
205.162624
 20
421.780012
 30
0.0
 10
200.659792
 20
415.361588
 30
0.0
 10
198.904656
 20
412.215860
 30
0.0
 10
197.969456
 20
409.778612
 30
0.0
 10
197.596960
 20
407.029740
 30
0.0
 10
197.529920
 20
402.949108
 30
0.0
 10
197.602080
 20
399.375108
 30
0.0
 10
197.853184
 20
396.758204
 30
0.0
 10
198.335288
 20
394.771644
 30
0.0
 10
199.100424
 20
393.088684
 30
0.0
 10
199.843512
 20
391.750988
 30
0.0
 10
200.705840
 20
390.169388
 30
0.0
 10
201.580440
 20
388.541524
 30
0.0
 10
202.360344
 20
387.065052
 30
0.0
 10
203.129296
 20
385.748252
 30
0.0
 10
203.973976
 20
384.555156
 30
0.0
 10
204.792000
 20
383.617004
 30
0.0
 10
205.480984
 20
383.065052
 30
0.0
 10
206.293768
 20
382.589108
 30
0.0
 10
207.448840
 20
381.857908
 30
0.0
 10
208.792352
 20
380.971100
 30
0.0
 10
210.170424
 20
380.028324
 30
0.0
 10
211.676288
 20
379.089948
 30
0.0
 10
213.367744
 20
378.215132
 30
0.0
 10
215.037784
 20
377.501676
 30
0.0
 10
216.479384
 20
377.047404
 30
0.0
 10
219.856280
 20
376.580492
 30
0.0
 10
224.058216
 20
376.424188
 30
0.0
 10
228.233376
 20
376.578700
 30
0.0
 10
231.529944
 20
377.044204
 30
0.0
 10
231.529944
 20
377.044188
 30
0.0
 10
231.529944
 20
377.044172
 30
0.0
 10
231.529944
 20
377.044148
 30
0.0
 10
231.529944
 20
377.044132
 30
0.0
  0
LWPOLYLINE
  5
108
100
AcDbEntity
  8
Layer_1
 62
7
100
AcDbPolyline
 90
406
 70
0
 10
378.729944
 20
521.948380
 30
0.0
 10
381.422320
 20
522.518820
 30
0.0
 10
384.021952
 20
522.992956
 30
0.0
 10
386.232624
 20
523.321364
 30
0.0
 10
387.758104
 20
523.454612
 30
0.0
 10
388.918352
 20
523.561516
 30
0.0
 10
390.134688
 20
523.818188
 30
0.0
 10
391.262728
 20
524.186156
 30
0.0
 10
392.158104
 20
524.626948
 30
0.0
 10
393.351064
 20
525.171244
 30
0.0
 10
395.289456
 20
525.821036
 30
0.0
 10
397.705128
 20
526.494804
 30
0.0
 10
400.329944
 20
527.111044
 30
0.0
 10
403.035880
 20
527.687940
 30
0.0
 10
405.672440
 20
528.254588
 30
0.0
 10
407.937760
 20
528.745836
 30
0.0
 10
409.529944
 20
529.096532
 30
0.0
 10
420.128664
 20
531.490396
 30
0.0
 10
427.431072
 20
533.193676
 30
0.0
 10
432.182904
 20
534.385492
 30
0.0
 10
435.129928
 20
535.244956
 30
0.0
 10
436.851080
 20
535.755556
 30
0.0
 10
438.876152
 20
536.271972
 30
0.0
 10
440.952544
 20
536.733948
 30
0.0
 10
442.827688
 20
537.081220
 30
0.0
 10
444.562520
 20
537.412172
 30
0.0
 10
446.256992
 20
537.829724
 30
0.0
 10
447.716824
 20
538.280388
 30
0.0
 10
448.747768
 20
538.710700
 30
0.0
 10
449.914376
 20
539.146380
 30
0.0
 10
451.743616
 20
539.611660
 30
0.0
 10
453.984832
 20
540.050844
 30
0.0
 10
456.387368
 20
540.408220
 30
0.0
 10
458.869928
 20
540.782172
 30
0.0
 10
461.329120
 20
541.266476
 30
0.0
 10
463.480976
 20
541.798556
 30
0.0
 10
465.041528
 20
542.315796
 30
0.0
 10
466.369208
 20
542.776052
 30
0.0
 10
467.886904
 20
543.152964
 30
0.0
 10
469.407520
 20
543.407628
 30
0.0
 10
470.743928
 20
543.501164
 30
0.0
 10
472.036760
 20
543.594364
 30
0.0
 10
473.438600
 20
543.848124
 30
0.0
 10
474.780488
 20
544.223692
 30
0.0
 10
475.893448
 20
544.682308
 30
0.0
 10
478.466160
 20
545.643052
 30
0.0
 10
483.042128
 20
546.894836
 30
0.0
 10
489.652872
 20
548.445548
 30
0.0
 10
498.329928
 20
550.303084
 30
0.0
 10
505.231168
 20
551.826180
 30
0.0
 10
511.520032
 20
553.385012
 30
0.0
 10
516.544064
 20
554.807612
 30
0.0
 10
519.650808
 20
555.922052
 30
0.0
 10
520.887496
 20
556.379876
 30
0.0
 10
522.391096
 20
556.754804
 30
0.0
 10
523.971696
 20
557.008124
 30
0.0
 10
525.439368
 20
557.101164
 30
0.0
 10
526.993096
 20
557.177404
 30
0.0
 10
528.808000
 20
557.384924
 30
0.0
 10
530.658344
 20
557.692060
 30
0.0
 10
532.318408
 20
558.067108
 30
0.0
 10
533.221288
 20
558.308588
 30
0.0
 10
534.124168
 20
558.550076
 30
0.0
 10
535.027048
 20
558.791556
 30
0.0
 10
535.929928
 20
559.033036
 30
0.0
 10
535.929928
 20
563.991556
 30
0.0
 10
535.929928
 20
568.950076
 30
0.0
 10
535.929928
 20
573.908588
 30
0.0
 10
535.929928
 20
578.867108
 30
0.0
 10
535.878248
 20
586.568308
 30
0.0
 10
535.737592
 20
592.874924
 30
0.0
 10
535.529432
 20
597.136156
 30
0.0
 10
535.275272
 20
598.701188
 30
0.0
 10
534.772880
 20
598.924052
 30
0.0
 10
533.888960
 20
599.530844
 30
0.0
 10
532.748192
 20
600.428908
 30
0.0
 10
531.475272
 20
601.525556
 30
0.0
 10
529.938344
 20
602.822276
 30
0.0
 10
528.078840
 20
604.265076
 30
0.0
 10
526.131216
 20
605.678092
 30
0.0
 10
524.329912
 20
606.885444
 30
0.0
 10
521.658248
 20
608.634244
 30
0.0
 10
519.114128
 20
610.412852
 30
0.0
 10
516.696040
 20
612.222348
 30
0.0
 10
514.402472
 20
614.063812
 30
0.0
 10
512.171904
 20
615.462508
 30
0.0
 10
508.724088
 20
617.253972
 30
0.0
 10
505.354368
 20
618.803420
 30
0.0
 10
503.358072
 20
619.476084
 30
0.0
 10
502.919080
 20
619.600988
 30
0.0
 10
502.442280
 20
619.922476
 30
0.0
 10
501.985176
 20
620.391852
 30
0.0
 10
501.605272
 20
620.960420
 30
0.0
 10
501.045816
 20
621.603780
 30
0.0
 10
500.099840
 20
622.276788
 30
0.0
 10
498.899544
 20
622.899636
 30
0.0
 10
497.577112
 20
623.392532
 30
0.0
 10
496.316272
 20
623.826620
 30
0.0
 10
495.283760
 20
624.289356
 30
0.0
 10
494.586128
 20
624.725396
 30
0.0
 10
494.329912
 20
625.079388
 30
0.0
 10
494.187880
 20
625.399892
 30
0.0
 10
493.801160
 20
625.744772
 30
0.0
 10
493.228816
 20
626.072580
 30
0.0
 10
492.529912
 20
626.341900
 30
0.0
 10
491.736320
 20
626.632724
 30
0.0
 10
490.906160
 20
627.019092
 30
0.0
 10
490.137880
 20
627.450628
 30
0.0
 10
489.529912
 20
627.876956
 30
0.0
 10
488.076992
 20
628.860380
 30
0.0
 10
485.557040
 20
630.249548
 30
0.0
 10
481.723528
 20
632.172988
 30
0.0
 10
476.329912
 20
634.759228
 30
0.0
 10
474.060848
 20
635.860052
 30
0.0
 10
472.022408
 20
636.898292
 30
0.0
 10
470.437728
 20
637.757116
 30
0.0
 10
469.529912
 20
638.319700
 30
0.0
 10
468.748352
 20
638.786300
 30
0.0
 10
467.507408
 20
639.383780
 30
0.0
 10
465.977728
 20
640.035236
 30
0.0
 10
464.329912
 20
640.663748
 30
0.0
 10
462.194512
 20
641.498004
 30
0.0
 10
459.337224
 20
642.709644
 30
0.0
 10
456.131440
 20
644.136188
 30
0.0
 10
452.950552
 20
645.615188
 30
0.0
 10
449.878504
 20
647.022180
 30
0.0
 10
446.969072
 20
648.252684
 30
0.0
 10
444.550376
 20
649.174164
 30
0.0
 10
442.950552
 20
649.654092
 30
0.0
 10
441.648944
 20
649.996252
 30
0.0
 10
440.042224
 20
650.542612
 30
0.0
 10
438.334512
 20
651.217940
 30
0.0
 10
436.729912
 20
651.947004
 30
0.0
 10
430.027984
 20
654.426260
 30
0.0
 10
418.620904
 20
658.072268
 30
0.0
 10
406.480952
 20
661.664036
 30
0.0
 10
397.580408
 20
663.980588
 30
0.0
 10
395.517032
 20
664.471484
 30
0.0
 10
393.705536
 20
664.995252
 30
0.0
 10
392.341472
 20
665.489212
 30
0.0
 10
391.620408
 20
665.890684
 30
0.0
 10
391.113184
 20
666.205396
 30
0.0
 10
390.331256
 20
666.463140
 30
0.0
 10
389.381288
 20
666.637316
 30
0.0
 10
388.369928
 20
666.701316
 30
0.0
 10
386.917520
 20
666.802508
 30
0.0
 10
384.766680
 20
667.077948
 30
0.0
 10
382.207456
 20
667.485556
 30
0.0
 10
379.529928
 20
667.983276
 30
0.0
 10
376.539928
 20
668.562252
 30
0.0
 10
373.129928
 20
669.191124
 30
0.0
 10
369.719928
 20
669.794020
 30
0.0
 10
366.729928
 20
670.295092
 30
0.0
 10
364.067224
 20
670.765092
 30
0.0
 10
361.548376
 20
671.283388
 30
0.0
 10
359.457288
 20
671.787044
 30
0.0
 10
358.077848
 20
672.213132
 30
0.0
 10
356.800288
 20
672.557940
 30
0.0
 10
354.986600
 20
672.840316
 30
0.0
 10
352.878288
 20
673.031108
 30
0.0
 10
350.716888
 20
673.101188
 30
0.0
 10
348.385528
 20
673.191740
 30
0.0
 10
345.814448
 20
673.438308
 30
0.0
 10
343.315848
 20
673.803212
 30
0.0
 10
341.201928
 20
674.248820
 30
0.0
 10
331.166000
 20
675.631116
 30
0.0
 10
315.499360
 20
676.532668
 30
0.0
 10
297.647136
 20
676.830220
 30
0.0
 10
281.054488
 20
676.400516
 30
0.0
 10
273.965944
 20
675.954148
 30
0.0
 10
267.620248
 20
675.468460
 30
0.0
 10
262.710528
 20
675.002076
 30
0.0
 10
259.929928
 20
674.613628
 30
0.0
 10
257.932432
 20
674.249340
 30
0.0
 10
255.154928
 20
673.848748
 30
0.0
 10
251.964928
 20
673.460420
 30
0.0
 10
248.729928
 20
673.132948
 30
0.0
 10
245.589616
 20
672.802052
 30
0.0
 10
242.657424
 20
672.404404
 30
0.0
 10
240.261488
 20
671.990012
 30
0.0
 10
238.729928
 20
671.608892
 30
0.0
 10
237.356176
 20
671.218436
 30
0.0
 10
235.389928
 20
670.778652
 30
0.0
 10
233.093680
 20
670.343404
 30
0.0
 10
230.729928
 20
669.966604
 30
0.0
 10
228.113704
 20
669.559028
 30
0.0
 10
225.130024
 20
669.040012
 30
0.0
 10
222.146384
 20
668.476220
 30
0.0
 10
219.530248
 20
667.934356
 30
0.0
 10
217.163432
 20
667.455540
 30
0.0
 10
214.858616
 20
667.063428
 30
0.0
 10
212.879616
 20
666.798492
 30
0.0
 10
211.490248
 20
666.701188
 30
0.0
 10
210.482752
 20
666.645108
 30
0.0
 10
209.543528
 20
666.492412
 30
0.0
 10
208.777584
 20
666.266420
 30
0.0
 10
208.289928
 20
665.990452
 30
0.0
 10
207.173088
 20
665.488204
 30
0.0
 10
204.694000
 20
664.646084
 30
0.0
 10
201.219312
 20
663.581524
 30
0.0
 10
197.115688
 20
662.411940
 30
0.0
 10
186.468840
 20
659.317684
 30
0.0
 10
175.900416
 20
655.988932
 30
0.0
 10
167.398168
 20
653.076244
 30
0.0
 10
162.949848
 20
651.230180
 30
0.0
 10
162.028528
 20
650.750276
 30
0.0
 10
160.865328
 20
650.281924
 30
0.0
 10
159.609248
 20
649.878788
 30
0.0
 10
158.409288
 20
649.594540
 30
0.0
 10
156.056712
 20
648.944956
 30
0.0
 10
153.032344
 20
647.819572
 30
0.0
 10
149.876616
 20
646.437644
 30
0.0
 10
147.129928
 20
645.018420
 30
0.0
 10
145.094936
 20
643.962300
 30
0.0
 10
142.477608
 20
642.778508
 30
0.0
 10
139.586440
 20
641.599388
 30
0.0
 10
136.729928
 20
640.557244
 30
0.0
 10
135.237432
 20
640.004700
 30
0.0
 10
133.834928
 20
639.404268
 30
0.0
 10
132.679928
 20
638.828396
 30
0.0
 10
131.929928
 20
638.349516
 30
0.0
 10
131.260416
 20
637.886612
 30
0.0
 10
130.324576
 20
637.354220
 30
0.0
 10
129.246432
 20
636.818156
 30
0.0
 10
128.150008
 20
636.344212
 30
0.0
 10
127.010784
 20
635.828724
 30
0.0
 10
125.816096
 20
635.179556
 30
0.0
 10
124.707768
 20
634.479780
 30
0.0
 10
123.827608
 20
633.812460
 30
0.0
 10
123.036664
 20
633.225660
 30
0.0
 10
122.171256
 20
632.745124
 30
0.0
 10
121.336104
 20
632.420436
 30
0.0
 10
120.635928
 20
632.301188
 30
0.0
 10
118.997704
 20
631.872300
 30
0.0
 10
116.326656
 20
630.656620
 30
0.0
 10
112.833752
 20
628.760668
 30
0.0
 10
108.729928
 20
626.290932
 30
0.0
 10
107.487728
 20
625.559956
 30
0.0
 10
106.175360
 20
624.867756
 30
0.0
 10
104.949128
 20
624.292388
 30
0.0
 10
103.965368
 20
623.911932
 30
0.0
 10
102.852600
 20
623.433580
 30
0.0
 10
101.275008
 20
622.591668
 30
0.0
 10
99.442600
 20
621.504972
 30
0.0
 10
97.565368
 20
620.292260
 30
0.0
 10
95.622256
 20
619.017548
 30
0.0
 10
93.610360
 20
617.762020
 30
0.0
 10
91.767104
 20
616.670244
 30
0.0
 10
90.329928
 20
615.886764
 30
0.0
 10
89.211176
 20
615.301204
 30
0.0
 10
88.234928
 20
614.748316
 30
0.0
 10
87.506184
 20
614.290356
 30
0.0
 10
87.129936
 20
613.989564
 30
0.0
 10
86.875264
 20
613.736812
 30
0.0
 10
86.477544
 20
613.409652
 30
0.0
 10
85.991224
 20
613.050348
 30
0.0
 10
85.470736
 20
612.701188
 30
0.0
 10
81.718064
 20
610.238924
 30
0.0
 10
77.623067
 20
607.426492
 30
0.0
 10
73.731488
 20
604.646068
 30
0.0
 10
70.589059
 20
602.279836
 30
0.0
 10
69.577639
 20
601.485172
 30
0.0
 10
68.566219
 20
600.690516
 30
0.0
 10
67.554799
 20
599.895852
 30
0.0
 10
66.543379
 20
599.101188
 30
0.0
 10
66.416699
 20
597.621012
 30
0.0
 10
66.290019
 20
596.140836
 30
0.0
 10
66.163339
 20
594.660660
 30
0.0
 10
66.036659
 20
593.180484
 30
0.0
 10
65.839904
 20
589.770228
 30
0.0
 10
65.678779
 20
584.861660
 30
0.0
 10
65.569919
 20
579.111204
 30
0.0
 10
65.529935
 20
573.175268
 30
0.0
 10
65.529935
 20
569.654140
 30
0.0
 10
65.529935
 20
566.133012
 30
0.0
 10
65.529935
 20
562.611884
 30
0.0
 10
65.529935
 20
559.090756
 30
0.0
 10
66.326795
 20
558.842060
 30
0.0
 10
67.123655
 20
558.593364
 30
0.0
 10
67.920515
 20
558.344668
 30
0.0
 10
68.717375
 20
558.095972
 30
0.0
 10
70.207183
 20
557.709716
 30
0.0
 10
71.907395
 20
557.393404
 30
0.0
 10
73.608538
 20
557.179684
 30
0.0
 10
75.101135
 20
557.101204
 30
0.0
 10
76.580225
 20
557.007860
 30
0.0
 10
78.244594
 20
556.753700
 30
0.0
 10
79.890394
 20
556.377540
 30
0.0
 10
81.313776
 20
555.918196
 30
0.0
 10
84.532624
 20
554.876508
 30
0.0
 10
89.461696
 20
553.509380
 30
0.0
 10
94.970840
 20
552.115724
 30
0.0
 10
99.929928
 20
550.994452
 30
0.0
 10
109.248984
 20
549.014892
 30
0.0
 10
117.454728
 20
547.153884
 30
0.0
 10
123.672488
 20
545.617460
 30
0.0
 10
127.027608
 20
544.611620
 30
0.0
 10
128.258776
 20
544.180468
 30
0.0
 10
129.616704
 20
543.827388
 30
0.0
 10
130.936512
 20
543.588820
 30
0.0
 10
132.053288
 20
543.501204
 30
0.0
 10
133.191904
 20
543.402940
 30
0.0
 10
134.571160
 20
543.135396
 30
0.0
 10
136.017056
 20
542.739428
 30
0.0
 10
137.355608
 20
542.255900
 30
0.0
 10
139.008880
 20
541.709700
 30
0.0
 10
141.311584
 20
541.143108
 30
0.0
 10
143.958904
 20
540.623028
 30
0.0
 10
146.646008
 20
540.216396
 30
0.0
 10
149.275544
 20
539.816452
 30
0.0
 10
151.766016
 20
539.314596
 30
0.0
 10
153.836568
 20
538.774972
 30
0.0
 10
155.206328
 20
538.261708
 30
0.0
 10
156.276416
 20
537.811108
 30
0.0
 10
157.531136
 20
537.442100
 30
0.0
 10
158.814192
 20
537.192772
 30
0.0
 10
159.969288
 20
537.101204
 30
0.0
 10
161.146216
 20
537.012828
 30
0.0
 10
162.488720
 20
536.772188
 30
0.0
 10
163.831448
 20
536.416044
 30
0.0
 10
165.009048
 20
535.981148
 30
0.0
 10
166.713792
 20
535.384412
 30
0.0
 10
169.491920
 20
534.587628
 30
0.0
 10
172.958824
 20
533.694836
 30
0.0
 10
176.729928
 20
532.810092
 30
0.0
 10
185.293840
 20
530.854572
 30
0.0
 10
195.670824
 20
528.423748
 30
0.0
 10
205.477368
 20
526.081292
 30
0.0
 10
212.329928
 20
524.390908
 30
0.0
 10
217.415168
 20
523.214628
 30
0.0
 10
223.881184
 20
521.865884
 30
0.0
 10
229.671576
 20
520.757020
 30
0.0
 10
232.729928
 20
520.300372
 30
0.0
 10
238.650544
 20
522.449124
 30
0.0
 10
249.430688
 20
527.275628
 30
0.0
 10
259.943296
 20
532.386964
 30
0.0
 10
265.061288
 20
535.390188
 30
0.0
 10
265.434664
 20
535.736596
 30
0.0
 10
266.091296
 20
536.097340
 30
0.0
 10
266.938568
 20
536.429724
 30
0.0
 10
267.883848
 20
536.691076
 30
0.0
 10
268.862544
 20
536.976828
 30
0.0
 10
269.800800
 20
537.375652
 30
0.0
 10
270.592096
 20
537.834724
 30
0.0
 10
271.129928
 20
538.301204
 30
0.0
 10
271.678872
 20
538.770124
 30
0.0
 10
272.500416
 20
539.235836
 30
0.0
 10
273.483440
 20
539.644492
 30
0.0
 10
274.516808
 20
539.942244
 30
0.0
 10
276.694256
 20
540.635908
 30
0.0
 10
279.426816
 20
541.837196
 30
0.0
 10
282.457656
 20
543.421932
 30
0.0
 10
285.529928
 20
545.265964
 30
0.0
 10
286.826768
 20
546.000340
 30
0.0
 10
288.879296
 20
547.049924
 30
0.0
 10
291.405544
 20
548.274668
 30
0.0
 10
294.123528
 20
549.534508
 30
0.0
 10
295.771928
 20
550.280388
 30
0.0
 10
297.420328
 20
551.026268
 30
0.0
 10
299.068728
 20
551.772140
 30
0.0
 10
300.717128
 20
552.518020
 30
0.0
 10
302.968728
 20
551.415684
 30
0.0
 10
305.220328
 20
550.313340
 30
0.0
 10
307.471928
 20
549.211004
 30
0.0
 10
309.723528
 20
548.108660
 30
0.0
 10
313.362576
 20
546.352956
 30
0.0
 10
316.613048
 20
544.832124
 30
0.0
 10
319.120360
 20
543.708980
 30
0.0
 10
320.529928
 20
543.146348
 30
0.0
 10
321.228832
 20
542.875204
 30
0.0
 10
321.801176
 20
542.545708
 30
0.0
 10
322.187896
 20
542.199484
 30
0.0
 10
322.329928
 20
541.878132
 30
0.0
 10
322.579584
 20
541.533188
 30
0.0
 10
323.259336
 20
541.122716
 30
0.0
 10
324.265392
 20
540.698140
 30
0.0
 10
325.493928
 20
540.310900
 30
0.0
 10
326.812336
 20
539.890188
 30
0.0
 10
328.063176
 20
539.374500
 30
0.0
 10
329.105232
 20
538.829180
 30
0.0
 10
329.797288
 20
538.319556
 30
0.0
 10
330.405704
 20
537.835492
 30
0.0
 10
331.220056
 20
537.359748
 30
0.0
 10
332.133904
 20
536.947036
 30
0.0
 10
333.040808
 20
536.652076
 30
0.0
 10
333.892296
 20
536.391292
 30
0.0
 10
334.655144
 20
536.071652
 30
0.0
 10
335.246008
 20
535.733636
 30
0.0
 10
335.581528
 20
535.417764
 30
0.0
 10
336.551192
 20
534.760236
 30
0.0
 10
338.868784
 20
533.491980
 30
0.0
 10
342.187216
 20
531.795564
 30
0.0
 10
346.159368
 20
529.853572
 30
0.0
 10
350.129800
 20
527.923540
 30
0.0
 10
353.443528
 20
526.259676
 30
0.0
 10
355.754176
 20
525.039596
 30
0.0
 10
356.715368
 20
524.440892
 30
0.0
 10
358.678560
 20
523.225308
 30
0.0
 10
362.227080
 20
521.878084
 30
0.0
 10
366.127240
 20
520.800788
 30
0.0
 10
369.145368
 20
520.394964
 30
0.0
 10
370.886880
 20
520.546564
 30
0.0
 10
373.274464
 20
520.889980
 30
0.0
 10
375.993648
 20
521.374260
 30
0.0
 10
378.729928
 20
521.948420
 30
0.0
 10
378.729944
 20
521.948380
 30
0.0
  0
LWPOLYLINE
  5
109
100
AcDbEntity
  8
Layer_1
 62
7
100
AcDbPolyline
 90
52
 70
0
 10
431.529928
 20
555.501164
 30
0.0
 10
430.205800
 20
556.103476
 30
0.0
 10
428.966056
 20
556.600796
 30
0.0
 10
427.949648
 20
556.941516
 30
0.0
 10
427.295528
 20
557.074020
 30
0.0
 10
426.527584
 20
557.447540
 30
0.0
 10
425.201360
 20
558.444452
 30
0.0
 10
423.503120
 20
559.912932
 30
0.0
 10
421.619128
 20
561.701164
 30
0.0
 10
417.706976
 20
566.239132
 30
0.0
 10
415.133384
 20
571.058228
 30
0.0
 10
413.633296
 20
576.848788
 30
0.0
 10
412.941608
 20
584.301164
 30
0.0
 10
412.841480
 20
588.483844
 30
0.0
 10
412.954216
 20
592.056132
 30
0.0
 10
413.295128
 20
595.244780
 30
0.0
 10
413.879528
 20
598.276580
 30
0.0
 10
416.148184
 20
604.778708
 30
0.0
 10
419.558824
 20
610.398684
 30
0.0
 10
423.818320
 20
614.755252
 30
0.0
 10
428.633528
 20
617.467140
 30
0.0
 10
432.888048
 20
618.353044
 30
0.0
 10
438.255944
 20
618.664708
 30
0.0
 10
443.604592
 20
618.397428
 30
0.0
 10
447.801368
 20
617.546500
 30
0.0
 10
451.324968
 20
615.501244
 30
0.0
 10
455.298064
 20
612.117460
 30
0.0
 10
458.682232
 20
608.397748
 30
0.0
 10
460.439048
 20
605.344716
 30
0.0
 10
460.771280
 20
604.215020
 30
0.0
 10
461.260816
 20
602.797620
 30
0.0
 10
461.841752
 20
601.273660
 30
0.0
 10
462.448168
 20
599.824276
 30
0.0
 10
464.029760
 20
593.491908
 30
0.0
 10
464.457960
 20
585.586564
 30
0.0
 10
463.765392
 20
578.016356
 30
0.0
 10
461.984648
 20
572.689412
 30
0.0
 10
461.536144
 20
571.868844
 30
0.0
 10
461.087416
 20
570.826060
 30
0.0
 10
460.690552
 20
569.694932
 30
0.0
 10
460.397608
 20
568.609356
 30
0.0
 10
458.759160
 20
565.349172
 30
0.0
 10
455.544496
 20
561.766940
 30
0.0
 10
451.394152
 20
558.461652
 30
0.0
 10
446.948648
 20
556.032300
 30
0.0
 10
442.615768
 20
554.616380
 30
0.0
 10
438.617208
 20
554.056412
 30
0.0
 10
434.929688
 20
554.351604
 30
0.0
 10
431.529928
 20
555.501148
 30
0.0
 10
431.529928
 20
555.501156
 30
0.0
 10
431.529928
 20
555.501156
 30
0.0
 10
431.529928
 20
555.501164
 30
0.0
  0
LWPOLYLINE
  5
10a
100
AcDbEntity
  8
Layer_1
 62
7
100
AcDbPolyline
 90
33
 70
0
 10
444.763768
 20
572.006948
 30
0.0
 10
447.170584
 20
574.004900
 30
0.0
 10
448.619136
 20
576.779388
 30
0.0
 10
449.316928
 20
581.007420
 30
0.0
 10
449.471448
 20
587.365996
 30
0.0
 10
449.228104
 20
593.903620
 30
0.0
 10
448.410128
 20
598.135236
 30
0.0
 10
446.736120
 20
600.844668
 30
0.0
 10
443.924648
 20
602.815716
 30
0.0
 10
439.734592
 20
604.209276
 30
0.0
 10
435.710064
 20
603.913524
 30
0.0
 10
432.044848
 20
601.984540
 30
0.0
 10
428.932728
 20
598.478364
 30
0.0
 10
427.739768
 20
596.424204
 30
0.0
 10
427.084648
 20
594.388620
 30
0.0
 10
426.811464
 20
591.553612
 30
0.0
 10
426.764344
 20
587.101164
 30
0.0
 10
426.838424
 20
582.839292
 30
0.0
 10
427.101496
 20
579.996620
 30
0.0
 10
427.654288
 20
577.972612
 30
0.0
 10
428.597520
 20
576.166748
 30
0.0
 10
429.453912
 20
574.927508
 30
0.0
 10
430.445376
 20
573.722556
 30
0.0
 10
431.449056
 20
572.689692
 30
0.0
 10
432.342080
 20
571.966748
 30
0.0
 10
434.968096
 20
571.042372
 30
0.0
 10
438.490880
 20
570.742820
 30
0.0
 10
442.044688
 20
571.065292
 30
0.0
 10
444.763760
 20
572.006988
 30
0.0
 10
444.763760
 20
572.006980
 30
0.0
 10
444.763760
 20
572.006972
 30
0.0
 10
444.763760
 20
572.006956
 30
0.0
 10
444.763768
 20
572.006948
 30
0.0
  0
LWPOLYLINE
  5
10b
100
AcDbEntity
  8
Layer_1
 62
7
100
AcDbPolyline
 90
122
 70
0
 10
330.350184
 20
556.597988
 30
0.0
 10
326.846208
 20
558.697292
 30
0.0
 10
324.055616
 20
561.079308
 30
0.0
 10
321.995744
 20
563.726044
 30
0.0
 10
320.683944
 20
566.619508
 30
0.0
 10
320.248336
 20
567.937316
 30
0.0
 10
319.721720
 20
569.395196
 30
0.0
 10
319.170480
 20
570.815868
 30
0.0
 10
318.660984
 20
572.022068
 30
0.0
 10
317.492208
 20
575.896180
 30
0.0
 10
318.199240
 20
578.455396
 30
0.0
 10
320.927408
 20
579.867724
 30
0.0
 10
325.822024
 20
580.301164
 30
0.0
 10
328.643472
 20
580.114372
 30
0.0
 10
330.535616
 20
579.516668
 30
0.0
 10
331.597944
 20
578.452092
 30
0.0
 10
331.929944
 20
576.864660
 30
0.0
 10
332.060488
 20
576.092492
 30
0.0
 10
332.415936
 20
575.111100
 30
0.0
 10
332.942008
 20
574.046492
 30
0.0
 10
333.584424
 20
573.024660
 30
0.0
 10
334.622824
 20
571.754108
 30
0.0
 10
335.770064
 20
571.056244
 30
0.0
 10
337.520664
 20
570.761708
 30
0.0
 10
340.369144
 20
570.701148
 30
0.0
 10
343.186032
 20
570.751308
 30
0.0
 10
344.788160
 20
570.994748
 30
0.0
 10
345.583744
 20
571.571060
 30
0.0
 10
345.980984
 20
572.619812
 30
0.0
 10
346.377048
 20
575.237156
 30
0.0
 10
345.888584
 20
577.082804
 30
0.0
 10
344.333560
 20
578.442276
 30
0.0
 10
341.529944
 20
579.601084
 30
0.0
 10
339.712984
 20
580.167828
 30
0.0
 10
338.018448
 20
580.635324
 30
0.0
 10
336.635808
 20
580.955100
 30
0.0
 10
335.754584
 20
581.078652
 30
0.0
 10
333.619664
 20
581.618868
 30
0.0
 10
330.800080
 20
583.024756
 30
0.0
 10
327.709936
 20
585.055524
 30
0.0
 10
324.763304
 20
587.470372
 30
0.0
 10
322.475824
 20
590.002284
 30
0.0
 10
320.999736
 20
592.784548
 30
0.0
 10
320.201872
 20
596.178868
 30
0.0
 10
319.949064
 20
600.546924
 30
0.0
 10
320.214824
 20
605.136124
 30
0.0
 10
321.106592
 20
608.827180
 30
0.0
 10
322.690472
 20
611.797876
 30
0.0
 10
325.032584
 20
614.225996
 30
0.0
 10
328.281552
 20
616.659028
 30
0.0
 10
331.071632
 20
618.004732
 30
0.0
 10
334.414112
 20
618.579860
 30
0.0
 10
339.320264
 20
618.701180
 30
0.0
 10
343.332784
 20
618.628540
 30
0.0
 10
346.186992
 20
618.340940
 30
0.0
 10
348.483944
 20
617.734052
 30
0.0
 10
350.824664
 20
616.703492
 30
0.0
 10
352.986168
 20
615.490724
 30
0.0
 10
354.564008
 20
614.165716
 30
0.0
 10
355.901664
 20
612.359596
 30
0.0
 10
357.342584
 20
609.703492
 30
0.0
 10
359.107920
 20
605.833548
 30
0.0
 10
360.136592
 20
602.727940
 30
0.0
 10
360.431488
 20
600.374804
 30
0.0
 10
359.995464
 20
598.762276
 30
0.0
 10
357.983960
 20
597.779324
 30
0.0
 10
354.288864
 20
597.054092
 30
0.0
 10
350.402544
 20
596.782740
 30
0.0
 10
347.817384
 20
597.161452
 30
0.0
 10
347.218720
 20
597.658684
 30
0.0
 10
346.593512
 20
598.474756
 30
0.0
 10
346.015840
 20
599.496492
 30
0.0
 10
345.559784
 20
600.610708
 30
0.0
 10
344.710120
 20
602.383516
 30
0.0
 10
343.425344
 20
603.510348
 30
0.0
 10
341.488544
 20
604.107252
 30
0.0
 10
338.682824
 20
604.290292
 30
0.0
 10
335.757600
 20
603.666044
 30
0.0
 10
333.953304
 20
602.140028
 30
0.0
 10
333.625544
 20
600.277468
 30
0.0
 10
335.129944
 20
598.643564
 30
0.0
 10
337.917592
 20
597.280076
 30
0.0
 10
340.823120
 20
596.007948
 30
0.0
 10
343.264344
 20
595.068044
 30
0.0
 10
344.659064
 20
594.701212
 30
0.0
 10
345.224216
 20
594.608508
 30
0.0
 10
346.006016
 20
594.356092
 30
0.0
 10
346.901200
 20
593.982516
 30
0.0
 10
347.806504
 20
593.526324
 30
0.0
 10
348.870248
 20
592.975636
 30
0.0
 10
350.196856
 20
592.344740
 30
0.0
 10
351.617160
 20
591.711500
 30
0.0
 10
352.962024
 20
591.153756
 30
0.0
 10
354.383328
 20
590.472132
 30
0.0
 10
355.477200
 20
589.665292
 30
0.0
 10
356.283048
 20
588.696412
 30
0.0
 10
356.840264
 20
587.528644
 30
0.0
 10
357.219848
 20
586.586116
 30
0.0
 10
357.627808
 20
585.814268
 30
0.0
 10
358.015176
 20
585.292748
 30
0.0
 10
358.332984
 20
585.101212
 30
0.0
 10
359.229104
 20
583.952532
 30
0.0
 10
360.283992
 20
581.204956
 30
0.0
 10
361.162616
 20
577.906180
 30
0.0
 10
361.529944
 20
575.103900
 30
0.0
 10
361.159840
 20
571.882476
 30
0.0
 10
360.242480
 20
568.366028
 30
0.0
 10
359.067272
 20
565.444908
 30
0.0
 10
357.923624
 20
564.009500
 30
0.0
 10
357.460160
 20
563.745972
 30
0.0
 10
357.080600
 20
563.367076
 30
0.0
 10
356.824136
 20
562.923460
 30
0.0
 10
356.729944
 20
562.465772
 30
0.0
 10
356.165600
 20
561.074868
 30
0.0
 10
354.558352
 20
559.456348
 30
0.0
 10
352.036904
 20
557.714940
 30
0.0
 10
348.729944
 20
555.955388
 30
0.0
 10
344.285784
 20
554.443292
 30
0.0
 10
339.714600
 20
554.047292
 30
0.0
 10
335.056152
 20
554.766004
 30
0.0
 10
330.350184
 20
556.598036
 30
0.0
 10
330.350184
 20
556.597988
 30
0.0
  0
LWPOLYLINE
  5
10c
100
AcDbEntity
  8
Layer_1
 62
7
100
AcDbPolyline
 90
42
 70
0
 10
183.659304
 20
556.211908
 30
0.0
 10
177.770640
 20
559.838228
 30
0.0
 10
172.989960
 20
564.614692
 30
0.0
 10
169.434400
 20
570.393012
 30
0.0
 10
167.221064
 20
577.024916
 30
0.0
 10
166.542080
 20
582.025668
 30
0.0
 10
166.374600
 20
587.745620
 30
0.0
 10
166.707072
 20
593.390076
 30
0.0
 10
167.527944
 20
598.164348
 30
0.0
 10
169.338984
 20
603.047396
 30
0.0
 10
172.082464
 20
607.831372
 30
0.0
 10
175.465864
 20
612.084796
 30
0.0
 10
179.196664
 20
615.376188
 30
0.0
 10
181.695880
 20
617.015092
 30
0.0
 10
183.854856
 20
617.923628
 30
0.0
 10
186.617320
 20
618.359636
 30
0.0
 10
190.926984
 20
618.580964
 30
0.0
 10
199.063016
 20
618.121412
 30
0.0
 10
205.347888
 20
615.801972
 30
0.0
 10
210.409968
 20
611.241620
 30
0.0
 10
214.877704
 20
604.059372
 30
0.0
 10
215.609160
 20
602.619820
 30
0.0
 10
216.340624
 20
601.180268
 30
0.0
 10
217.072080
 20
599.740716
 30
0.0
 10
217.803544
 20
598.301164
 30
0.0
 10
217.798744
 20
595.401164
 30
0.0
 10
217.793944
 20
592.501164
 30
0.0
 10
217.789144
 20
589.601164
 30
0.0
 10
217.784344
 20
586.701164
 30
0.0
 10
217.725304
 20
580.104612
 30
0.0
 10
217.451872
 20
576.113868
 30
0.0
 10
216.778280
 20
573.416772
 30
0.0
 10
215.518760
 20
570.701164
 30
0.0
 10
212.667416
 20
565.777164
 30
0.0
 10
209.627440
 20
561.966660
 30
0.0
 10
206.136904
 20
558.997748
 30
0.0
 10
201.933880
 20
556.598548
 30
0.0
 10
196.958008
 20
554.639628
 30
0.0
 10
192.593312
 20
553.929388
 30
0.0
 10
188.330264
 20
554.457076
 30
0.0
 10
183.659320
 20
556.211908
 30
0.0
 10
183.659304
 20
556.211908
 30
0.0
  0
LWPOLYLINE
  5
10d
100
AcDbEntity
  8
Layer_1
 62
7
100
AcDbPolyline
 90
26
 70
0
 10
199.273624
 20
572.101164
 30
0.0
 10
201.418200
 20
575.154388
 30
0.0
 10
202.862104
 20
578.552380
 30
0.0
 10
203.677568
 20
582.530924
 30
0.0
 10
203.936824
 20
587.325796
 30
0.0
 10
203.551320
 20
593.352620
 30
0.0
 10
202.351776
 20
597.917308
 30
0.0
 10
200.293432
 20
601.126604
 30
0.0
 10
197.331544
 20
603.087220
 30
0.0
 10
191.112600
 20
604.246932
 30
0.0
 10
186.195000
 20
602.384676
 30
0.0
 10
182.775248
 20
597.655820
 30
0.0
 10
181.049864
 20
590.215716
 30
0.0
 10
180.903016
 20
584.653756
 30
0.0
 10
181.533864
 20
579.844820
 30
0.0
 10
182.907720
 20
575.939748
 30
0.0
 10
184.989864
 20
573.089404
 30
0.0
 10
186.507792
 20
571.813412
 30
0.0
 10
187.974624
 20
571.094940
 30
0.0
 10
189.903096
 20
570.777564
 30
0.0
 10
192.805944
 20
570.704844
 30
0.0
 10
195.392856
 20
570.770844
 30
0.0
 10
197.212816
 20
570.999676
 30
0.0
 10
198.446256
 20
571.430140
 30
0.0
 10
199.273624
 20
572.101100
 30
0.0
 10
199.273624
 20
572.101164
 30
0.0
  0
LWPOLYLINE
  5
10e
100
AcDbEntity
  8
Layer_1
 62
7
100
AcDbPolyline
 90
46
 70
0
 10
468.387048
 20
556.758308
 30
0.0
 10
467.727944
 20
558.393724
 30
0.0
 10
467.347216
 20
562.825436
 30
0.0
 10
467.172128
 20
571.809292
 30
0.0
 10
467.129968
 20
587.101164
 30
0.0
 10
467.172128
 20
602.393036
 30
0.0
 10
467.347216
 20
611.376892
 30
0.0
 10
467.727944
 20
615.808604
 30
0.0
 10
468.387048
 20
617.444020
 30
0.0
 10
469.515784
 20
618.076212
 30
0.0
 10
471.743528
 20
618.459940
 30
0.0
 10
475.656728
 20
618.649988
 30
0.0
 10
481.841848
 20
618.701188
 30
0.0
 10
491.434448
 20
618.475020
 30
0.0
 10
497.642640
 20
617.582628
 30
0.0
 10
501.648632
 20
615.703196
 30
0.0
 10
504.634648
 20
612.515924
 30
0.0
 10
507.147776
 20
608.702244
 30
0.0
 10
508.724552
 20
605.295908
 30
0.0
 10
509.531008
 20
601.817172
 30
0.0
 10
509.733208
 20
597.786308
 30
0.0
 10
509.349816
 20
593.401540
 30
0.0
 10
508.262856
 20
589.484108
 30
0.0
 10
506.426752
 20
585.917588
 30
0.0
 10
503.795928
 20
582.585564
 30
0.0
 10
501.281744
 20
580.425188
 30
0.0
 10
498.185784
 20
578.949436
 30
0.0
 10
493.994104
 20
577.986316
 30
0.0
 10
488.192728
 20
577.363828
 30
0.0
 10
486.558424
 20
577.240972
 30
0.0
 10
484.924128
 20
577.118116
 30
0.0
 10
483.289824
 20
576.995260
 30
0.0
 10
481.655528
 20
576.872404
 30
0.0
 10
481.589848
 20
574.393324
 30
0.0
 10
481.524168
 20
571.914252
 30
0.0
 10
481.458488
 20
569.435172
 30
0.0
 10
481.392808
 20
566.956092
 30
0.0
 10
481.209392
 20
562.107732
 30
0.0
 10
480.935576
 20
558.939828
 30
0.0
 10
480.524680
 20
557.111708
 30
0.0
 10
479.930008
 20
556.282732
 30
0.0
 10
477.472520
 20
555.619332
 30
0.0
 10
473.931768
 20
555.510340
 30
0.0
 10
470.504424
 20
555.906444
 30
0.0
 10
468.387128
 20
556.758332
 30
0.0
 10
468.387048
 20
556.758308
 30
0.0
  0
LWPOLYLINE
  5
10f
100
AcDbEntity
  8
Layer_1
 62
7
100
AcDbPolyline
 90
30
 70
0
 10
493.884568
 20
594.079172
 30
0.0
 10
494.822320
 20
596.065852
 30
0.0
 10
495.068560
 20
598.191220
 30
0.0
 10
494.634144
 20
600.216060
 30
0.0
 10
493.529928
 20
601.901164
 30
0.0
 10
492.512152
 20
602.687692
 30
0.0
 10
491.203024
 20
603.178084
 30
0.0
 10
489.357344
 20
603.430004
 30
0.0
 10
486.729928
 20
603.501204
 30
0.0
 10
485.429928
 20
603.501204
 30
0.0
 10
484.129928
 20
603.501204
 30
0.0
 10
482.829928
 20
603.501204
 30
0.0
 10
481.529928
 20
603.501204
 30
0.0
 10
481.529928
 20
602.101204
 30
0.0
 10
481.529928
 20
600.701204
 30
0.0
 10
481.529928
 20
599.301204
 30
0.0
 10
481.529928
 20
597.901204
 30
0.0
 10
481.529928
 20
596.501204
 30
0.0
 10
481.529928
 20
595.101204
 30
0.0
 10
481.529928
 20
593.701204
 30
0.0
 10
481.529928
 20
592.301204
 30
0.0
 10
482.918584
 20
592.301204
 30
0.0
 10
484.307248
 20
592.301204
 30
0.0
 10
485.695904
 20
592.301204
 30
0.0
 10
487.084568
 20
592.301204
 30
0.0
 10
490.033656
 20
592.361444
 30
0.0
 10
491.890640
 20
592.610044
 30
0.0
 10
493.044584
 20
593.148716
 30
0.0
 10
493.884568
 20
594.079188
 30
0.0
 10
493.884568
 20
594.079172
 30
0.0
  0
LWPOLYLINE
  5
110
100
AcDbEntity
  8
Layer_1
 62
7
100
AcDbPolyline
 90
73
 70
0
 10
396.729944
 20
556.282700
 30
0.0
 10
396.126232
 20
557.183012
 30
0.0
 10
395.718456
 20
559.295036
 30
0.0
 10
395.452024
 20
563.097828
 30
0.0
 10
395.272344
 20
569.070452
 30
0.0
 10
395.207944
 20
572.078132
 30
0.0
 10
395.143544
 20
575.085812
 30
0.0
 10
395.079144
 20
578.093484
 30
0.0
 10
395.014744
 20
581.101164
 30
0.0
 10
393.152480
 20
581.101164
 30
0.0
 10
391.290224
 20
581.101164
 30
0.0
 10
389.427960
 20
581.101164
 30
0.0
 10
387.565704
 20
581.101164
 30
0.0
 10
382.488376
 20
581.006548
 30
0.0
 10
380.014224
 20
579.736940
 30
0.0
 10
379.209632
 20
575.813732
 30
0.0
 10
379.140992
 20
567.758308
 30
0.0
 10
378.977376
 20
560.953956
 30
0.0
 10
378.154680
 20
557.283804
 30
0.0
 10
376.146344
 20
555.786620
 30
0.0
 10
372.425792
 20
555.501164
 30
0.0
 10
368.015048
 20
555.718924
 30
0.0
 10
365.870552
 20
558.745572
 30
0.0
 10
365.179736
 20
568.141188
 30
0.0
 10
365.130056
 20
587.465852
 30
0.0
 10
365.172536
 20
602.900212
 30
0.0
 10
365.343272
 20
612.018916
 30
0.0
 10
365.707424
 20
616.474148
 30
0.0
 10
366.330096
 20
617.918092
 30
0.0
 10
368.610632
 20
618.482332
 30
0.0
 10
372.217384
 20
618.666772
 30
0.0
 10
375.879752
 20
618.473036
 30
0.0
 10
378.327136
 20
617.902732
 30
0.0
 10
379.121696
 20
617.227740
 30
0.0
 10
379.511168
 20
615.858204
 30
0.0
 10
379.566928
 20
613.138196
 30
0.0
 10
379.360456
 20
608.411788
 30
0.0
 10
379.224160
 20
604.870228
 30
0.0
 10
379.192000
 20
601.653164
 30
0.0
 10
379.261680
 20
599.115012
 30
0.0
 10
379.430832
 20
597.610212
 30
0.0
 10
379.861296
 20
596.398244
 30
0.0
 10
380.855968
 20
595.771308
 30
0.0
 10
383.151120
 20
595.536564
 30
0.0
 10
387.482992
 20
595.501204
 30
0.0
 10
389.363672
 20
595.501204
 30
0.0
 10
391.244352
 20
595.501204
 30
0.0
 10
393.125032
 20
595.501204
 30
0.0
 10
395.005712
 20
595.501204
 30
0.0
 10
395.071232
 20
598.208892
 30
0.0
 10
395.136752
 20
600.916572
 30
0.0
 10
395.202272
 20
603.624260
 30
0.0
 10
395.267792
 20
606.331940
 30
0.0
 10
395.541112
 20
613.470900
 30
0.0
 10
396.339624
 20
617.135124
 30
0.0
 10
398.303432
 20
618.487012
 30
0.0
 10
402.072672
 20
618.688956
 30
0.0
 10
406.064592
 20
618.433652
 30
0.0
 10
408.025000
 20
615.360316
 30
0.0
 10
408.673528
 20
606.054356
 30
0.0
 10
408.729768
 20
587.101204
 30
0.0
 10
408.673528
 20
568.148052
 30
0.0
 10
408.025000
 20
558.842100
 30
0.0
 10
406.064592
 20
555.768756
 30
0.0
 10
402.072672
 20
555.513452
 30
0.0
 10
400.369392
 20
555.577772
 30
0.0
 10
398.794272
 20
555.744324
 30
0.0
 10
397.522632
 20
555.987748
 30
0.0
 10
396.729792
 20
556.282708
 30
0.0
 10
396.729872
 20
556.282708
 30
0.0
 10
396.729952
 20
556.282708
 30
0.0
 10
396.730032
 20
556.282708
 30
0.0
 10
396.729944
 20
556.282700
 30
0.0
  0
LWPOLYLINE
  5
111
100
AcDbEntity
  8
Layer_1
 62
7
100
AcDbPolyline
 90
105
 70
0
 10
302.268424
 20
557.839628
 30
0.0
 10
301.360440
 20
558.844348
 30
0.0
 10
300.616872
 20
559.851308
 30
0.0
 10
300.114464
 20
560.743548
 30
0.0
 10
299.929944
 20
561.404100
 30
0.0
 10
299.776384
 20
562.106428
 30
0.0
 10
299.358264
 20
563.112404
 30
0.0
 10
298.739448
 20
564.287692
 30
0.0
 10
297.983784
 20
565.497964
 30
0.0
 10
297.116024
 20
566.908796
 30
0.0
 10
296.192016
 20
568.630148
 30
0.0
 10
295.322224
 20
570.444284
 30
0.0
 10
294.617144
 20
572.133492
 30
0.0
 10
293.384136
 20
575.055892
 30
0.0
 10
291.957280
 20
577.969508
 30
0.0
 10
290.686104
 20
580.207036
 30
0.0
 10
289.920104
 20
581.101164
 30
0.0
 10
289.627512
 20
580.836228
 30
0.0
 10
289.016976
 20
580.114868
 30
0.0
 10
288.177760
 20
579.047260
 30
0.0
 10
287.199144
 20
577.743564
 30
0.0
 10
285.809568
 20
575.684228
 30
0.0
 10
285.072304
 20
573.716580
 30
0.0
 10
284.781168
 20
570.876708
 30
0.0
 10
284.729968
 20
566.200708
 30
0.0
 10
284.552328
 20
560.316124
 30
0.0
 10
283.664248
 20
557.106244
 30
0.0
 10
281.532968
 20
555.768708
 30
0.0
 10
277.625728
 20
555.501164
 30
0.0
 10
272.955760
 20
555.694836
 30
0.0
 10
270.695616
 20
558.681348
 30
0.0
 10
269.976592
 20
568.068940
 30
0.0
 10
269.929952
 20
587.465852
 30
0.0
 10
269.972432
 20
602.900212
 30
0.0
 10
270.143168
 20
612.018916
 30
0.0
 10
270.507320
 20
616.474148
 30
0.0
 10
271.129992
 20
617.918092
 30
0.0
 10
271.985960
 20
618.213596
 30
0.0
 10
273.429472
 20
618.457436
 30
0.0
 10
275.258968
 20
618.624308
 30
0.0
 10
277.272872
 20
618.688948
 30
0.0
 10
281.484864
 20
618.447124
 30
0.0
 10
283.711272
 20
616.976932
 30
0.0
 10
284.589424
 20
613.201516
 30
0.0
 10
284.756632
 20
606.044052
 30
0.0
 10
284.763032
 20
603.508340
 30
0.0
 10
284.769432
 20
600.972620
 30
0.0
 10
284.775832
 20
598.436908
 30
0.0
 10
284.782232
 20
595.901196
 30
0.0
 10
285.196248
 20
596.401196
 30
0.0
 10
285.610272
 20
596.901196
 30
0.0
 10
286.024288
 20
597.401196
 30
0.0
 10
286.438312
 20
597.901196
 30
0.0
 10
287.295944
 20
598.930260
 30
0.0
 10
288.406928
 20
600.253700
 30
0.0
 10
289.627688
 20
601.700884
 30
0.0
 10
290.814632
 20
603.101196
 30
0.0
 10
294.139952
 20
607.158204
 30
0.0
 10
297.350672
 20
611.302684
 30
0.0
 10
299.771968
 20
614.638372
 30
0.0
 10
300.729032
 20
616.269036
 30
0.0
 10
301.500360
 20
617.201188
 30
0.0
 10
303.583600
 20
617.975892
 30
0.0
 10
306.632616
 20
618.505212
 30
0.0
 10
310.301272
 20
618.701196
 30
0.0
 10
314.142984
 20
618.602892
 30
0.0
 10
316.615040
 20
618.271244
 30
0.0
 10
317.937152
 20
617.651132
 30
0.0
 10
318.329032
 20
616.687444
 30
0.0
 10
317.577688
 20
615.078388
 30
0.0
 10
315.531072
 20
612.114012
 30
0.0
 10
312.500272
 20
608.214852
 30
0.0
 10
308.796392
 20
603.801444
 30
0.0
 10
305.352920
 20
599.747660
 30
0.0
 10
302.822312
 20
596.568828
 30
0.0
 10
301.261904
 20
594.340716
 30
0.0
 10
300.729032
 20
593.139100
 30
0.0
 10
300.877152
 20
592.565948
 30
0.0
 10
301.280448
 20
591.648292
 30
0.0
 10
301.877344
 20
590.512596
 30
0.0
 10
302.606232
 20
589.285300
 30
0.0
 10
303.411440
 20
587.893988
 30
0.0
 10
304.216240
 20
586.311708
 30
0.0
 10
304.927272
 20
584.733108
 30
0.0
 10
305.451192
 20
583.352868
 30
0.0
 10
305.878152
 20
582.188228
 30
0.0
 10
306.325200
 20
581.196684
 30
0.0
 10
306.739328
 20
580.483228
 30
0.0
 10
307.067512
 20
580.152868
 30
0.0
 10
309.295072
 20
576.768236
 30
0.0
 10
313.114224
 20
569.611012
 30
0.0
 10
316.725400
 20
562.207660
 30
0.0
 10
318.329032
 20
558.084652
 30
0.0
 10
318.082392
 20
556.788988
 30
0.0
 10
317.016192
 20
556.041644
 30
0.0
 10
314.641032
 20
555.685732
 30
0.0
 10
310.467512
 20
555.564356
 30
0.0
 10
307.192152
 20
555.589236
 30
0.0
 10
305.138712
 20
555.864364
 30
0.0
 10
303.699672
 20
556.558316
 30
0.0
 10
302.267512
 20
557.839660
 30
0.0
 10
302.267552
 20
557.839660
 30
0.0
 10
302.267592
 20
557.839660
 30
0.0
 10
302.267632
 20
557.839660
 30
0.0
 10
302.268424
 20
557.839628
 30
0.0
  0
LWPOLYLINE
  5
112
100
AcDbEntity
  8
Layer_1
 62
7
100
AcDbPolyline
 90
78
 70
0
 10
253.866584
 20
556.113412
 30
0.0
 10
253.347008
 20
556.688812
 30
0.0
 10
252.570480
 20
557.821012
 30
0.0
 10
251.642008
 20
559.346348
 30
0.0
 10
250.666584
 20
561.101164
 30
0.0
 10
249.723160
 20
562.841164
 30
0.0
 10
248.881720
 20
564.326164
 30
0.0
 10
248.234000
 20
565.398668
 30
0.0
 10
247.871704
 20
565.901164
 30
0.0
 10
247.487856
 20
566.482724
 30
0.0
 10
246.781544
 20
567.770500
 30
0.0
 10
245.853408
 20
569.574100
 30
0.0
 10
244.804104
 20
571.703148
 30
0.0
 10
242.897608
 20
575.212356
 30
0.0
 10
241.071264
 20
577.638396
 30
0.0
 10
239.263416
 20
579.046316
 30
0.0
 10
237.412424
 20
579.501164
 30
0.0
 10
236.683280
 20
579.146396
 30
0.0
 10
236.236176
 20
577.627148
 30
0.0
 10
235.971696
 20
574.260996
 30
0.0
 10
235.790424
 20
568.365524
 30
0.0
 10
235.639520
 20
563.992172
 30
0.0
 10
235.421184
 20
560.316380
 30
0.0
 10
235.164672
 20
557.724148
 30
0.0
 10
234.899224
 20
556.601476
 30
0.0
 10
234.257600
 20
556.332220
 30
0.0
 10
232.976832
 20
556.063628
 30
0.0
 10
231.242600
 20
555.826820
 30
0.0
 10
229.240584
 20
555.652924
 30
0.0
 10
224.582056
 20
555.578044
 30
0.0
 10
222.315272
 20
558.464948
 30
0.0
 10
221.583488
 20
567.807884
 30
0.0
 10
221.529968
 20
587.101140
 30
0.0
 10
221.570928
 20
602.584564
 30
0.0
 10
221.747952
 20
611.548932
 30
0.0
 10
222.142376
 20
615.887196
 30
0.0
 10
222.835504
 20
617.492356
 30
0.0
 10
224.015704
 20
618.164852
 30
0.0
 10
226.451272
 20
618.525660
 30
0.0
 10
231.028952
 20
618.634100
 30
0.0
 10
238.635504
 20
618.549492
 30
0.0
 10
246.638320
 20
618.363004
 30
0.0
 10
251.509584
 20
618.043596
 30
0.0
 10
254.572568
 20
617.436796
 30
0.0
 10
257.150544
 20
616.388124
 30
0.0
 10
259.381240
 20
615.206172
 30
0.0
 10
260.891224
 20
613.938196
 30
0.0
 10
262.104320
 20
612.100828
 30
0.0
 10
263.444384
 20
609.210700
 30
0.0
 10
264.624688
 20
606.257364
 30
0.0
 10
265.261976
 20
603.867084
 30
0.0
 10
265.466944
 20
601.401636
 30
0.0
 10
265.350304
 20
598.222844
 30
0.0
 10
264.757608
 20
593.893924
 30
0.0
 10
263.511792
 20
590.256252
 30
0.0
 10
261.495544
 20
587.064268
 30
0.0
 10
258.591584
 20
584.072340
 30
0.0
 10
257.944840
 20
583.504492
 30
0.0
 10
257.298104
 20
582.936644
 30
0.0
 10
256.651360
 20
582.368788
 30
0.0
 10
256.004624
 20
581.800940
 30
0.0
 10
256.661800
 20
580.863468
 30
0.0
 10
257.318984
 20
579.925988
 30
0.0
 10
257.976160
 20
578.988516
 30
0.0
 10
258.633344
 20
578.051036
 30
0.0
 10
261.670424
 20
573.104684
 30
0.0
 10
264.978984
 20
566.888332
 30
0.0
 10
267.638880
 20
561.232292
 30
0.0
 10
268.729984
 20
557.966892
 30
0.0
 10
268.651104
 20
557.340044
 30
0.0
 10
268.436256
 20
556.766092
 30
0.0
 10
268.118288
 20
556.308556
 30
0.0
 10
267.730008
 20
556.030964
 30
0.0
 10
265.032720
 20
555.683524
 30
0.0
 10
260.565584
 20
555.588924
 30
0.0
 10
256.214824
 20
555.735948
 30
0.0
 10
253.866648
 20
556.113388
 30
0.0
 10
253.866584
 20
556.113412
 30
0.0
  0
LWPOLYLINE
  5
113
100
AcDbEntity
  8
Layer_1
 62
7
100
AcDbPolyline
 90
26
 70
0
 10
251.101784
 20
596.248572
 30
0.0
 10
252.023096
 20
599.443916
 30
0.0
 10
250.850800
 20
601.707868
 30
0.0
 10
247.566536
 20
603.055324
 30
0.0
 10
242.151944
 20
603.501164
 30
0.0
 10
240.596440
 20
603.501164
 30
0.0
 10
239.040944
 20
603.501164
 30
0.0
 10
237.485440
 20
603.501164
 30
0.0
 10
235.929944
 20
603.501164
 30
0.0
 10
235.929944
 20
602.401164
 30
0.0
 10
235.929944
 20
601.301164
 30
0.0
 10
235.929944
 20
600.201164
 30
0.0
 10
235.929944
 20
599.101164
 30
0.0
 10
235.929944
 20
598.001164
 30
0.0
 10
235.929944
 20
596.901164
 30
0.0
 10
235.929944
 20
595.801164
 30
0.0
 10
235.929944
 20
594.701164
 30
0.0
 10
237.722904
 20
594.701164
 30
0.0
 10
239.515864
 20
594.701164
 30
0.0
 10
241.308824
 20
594.701164
 30
0.0
 10
243.101784
 20
594.701164
 30
0.0
 10
246.895872
 20
594.752684
 30
0.0
 10
249.182136
 20
594.967444
 30
0.0
 10
250.428224
 20
595.435932
 30
0.0
 10
251.101784
 20
596.248604
 30
0.0
 10
251.101784
 20
596.248572
 30
0.0
  0
LWPOLYLINE
  5
114
100
AcDbEntity
  8
Layer_1
 62
7
100
AcDbPolyline
 90
161
 70
0
 10
141.636504
 20
556.218396
 30
0.0
 10
141.161008
 20
556.884084
 30
0.0
 10
140.689984
 20
558.183620
 30
0.0
 10
140.272600
 20
559.947476
 30
0.0
 10
139.958024
 20
562.006140
 30
0.0
 10
139.661176
 20
564.154212
 30
0.0
 10
139.285392
 20
566.236524
 30
0.0
 10
138.878848
 20
568.015284
 30
0.0
 10
138.489704
 20
569.252724
 30
0.0
 10
138.015712
 20
570.767036
 30
0.0
 10
137.378128
 20
573.299668
 30
0.0
 10
136.660408
 20
576.497708
 30
0.0
 10
135.946024
 20
580.008228
 30
0.0
 10
135.281968
 20
583.368308
 30
0.0
 10
134.701376
 20
586.156732
 30
0.0
 10
134.266744
 20
588.083132
 30
0.0
 10
134.040584
 20
588.857164
 30
0.0
 10
133.688064
 20
587.684804
 30
0.0
 10
132.909304
 20
584.311620
 30
0.0
 10
131.819384
 20
579.256644
 30
0.0
 10
130.533384
 20
573.038916
 30
0.0
 10
129.228248
 20
566.763396
 30
0.0
 10
128.086232
 20
561.551068
 30
0.0
 10
127.230376
 20
557.944996
 30
0.0
 10
126.783704
 20
556.488244
 30
0.0
 10
124.935448
 20
555.999924
 30
0.0
 10
121.404784
 20
555.661948
 30
0.0
 10
117.607416
 20
555.559404
 30
0.0
 10
114.959064
 20
555.777412
 30
0.0
 10
113.214984
 20
556.659668
 30
0.0
 10
111.869280
 20
558.614124
 30
0.0
 10
110.691848
 20
562.140644
 30
0.0
 10
109.452584
 20
567.739068
 30
0.0
 10
108.733976
 20
571.146252
 30
0.0
 10
107.972272
 20
574.389556
 30
0.0
 10
107.258352
 20
577.102188
 30
0.0
 10
106.683064
 20
578.917356
 30
0.0
 10
106.235320
 20
580.338804
 30
0.0
 10
105.868664
 20
581.979412
 30
0.0
 10
105.620928
 20
583.636124
 30
0.0
 10
105.529944
 20
585.105876
 30
0.0
 10
105.465944
 20
586.606820
 30
0.0
 10
105.291616
 20
588.348452
 30
0.0
 10
105.033608
 20
590.114756
 30
0.0
 10
104.718528
 20
591.689684
 30
0.0
 10
104.280888
 20
593.582420
 30
0.0
 10
103.689176
 20
596.214044
 30
0.0
 10
103.020984
 20
599.236348
 30
0.0
 10
102.353888
 20
602.301164
 30
0.0
 10
101.673208
 20
605.360228
 30
0.0
 10
100.967896
 20
608.366884
 30
0.0
 10
100.321224
 20
610.975340
 30
0.0
 10
99.816448
 20
612.839788
 30
0.0
 10
99.244400
 20
615.963060
 30
0.0
 10
100.049984
 20
617.775100
 30
0.0
 10
102.591824
 20
618.553404
 30
0.0
 10
107.228528
 20
618.575484
 30
0.0
 10
109.671080
 20
618.421372
 30
0.0
 10
111.757480
 20
618.209020
 30
0.0
 10
113.266304
 20
617.966460
 30
0.0
 10
113.976128
 20
617.721692
 30
0.0
 10
114.246472
 20
616.976412
 30
0.0
 10
114.558680
 20
615.371052
 30
0.0
 10
114.874112
 20
613.141780
 30
0.0
 10
115.154128
 20
610.524732
 30
0.0
 10
115.650856
 20
606.065356
 30
0.0
 10
116.316432
 20
602.047524
 30
0.0
 10
117.234136
 20
598.049756
 30
0.0
 10
118.487248
 20
593.650548
 30
0.0
 10
119.037792
 20
591.940748
 30
0.0
 10
119.428752
 20
591.242196
 30
0.0
 10
119.832784
 20
591.447812
 30
0.0
 10
120.422528
 20
592.450548
 30
0.0
 10
120.852168
 20
593.579428
 30
0.0
 10
121.280480
 20
595.285060
 30
0.0
 10
121.657832
 20
597.336092
 30
0.0
 10
121.934608
 20
599.501180
 30
0.0
 10
122.783808
 20
605.004612
 30
0.0
 10
124.127560
 20
610.645372
 30
0.0
 10
125.642776
 20
615.264028
 30
0.0
 10
127.006368
 20
617.701180
 30
0.0
 10
127.951768
 20
618.113892
 30
0.0
 10
129.585200
 20
618.429148
 30
0.0
 10
131.784048
 20
618.630420
 30
0.0
 10
134.425728
 20
618.701220
 30
0.0
 10
138.758704
 20
618.488876
 30
0.0
 10
141.419336
 20
617.713532
 30
0.0
 10
142.765744
 20
616.167748
 30
0.0
 10
143.156048
 20
613.644076
 30
0.0
 10
143.288336
 20
612.309548
 30
0.0
 10
143.629176
 20
610.555684
 30
0.0
 10
144.126936
 20
608.610308
 30
0.0
 10
144.729968
 20
606.701220
 30
0.0
 10
145.337688
 20
604.740284
 30
0.0
 10
145.848184
 20
602.653724
 30
0.0
 10
146.207880
 20
600.690908
 30
0.0
 10
146.363168
 20
599.101220
 30
0.0
 10
146.513320
 20
597.606220
 30
0.0
 10
146.858744
 20
595.901220
 30
0.0
 10
147.348080
 20
594.196220
 30
0.0
 10
147.929968
 20
592.701220
 30
0.0
 10
148.300304
 20
591.901220
 30
0.0
 10
148.670648
 20
591.101220
 30
0.0
 10
149.040984
 20
590.301220
 30
0.0
 10
149.411328
 20
589.501220
 30
0.0
 10
149.426128
 20
590.207636
 30
0.0
 10
149.440928
 20
590.914052
 30
0.0
 10
149.455728
 20
591.620460
 30
0.0
 10
149.470528
 20
592.326876
 30
0.0
 10
149.589056
 20
593.769188
 30
0.0
 10
149.867728
 20
595.607460
 30
0.0
 10
150.264960
 20
597.605436
 30
0.0
 10
150.739168
 20
599.526876
 30
0.0
 10
151.307528
 20
601.730348
 30
0.0
 10
151.961064
 20
604.496260
 30
0.0
 10
152.619024
 20
607.471060
 30
0.0
 10
153.200608
 20
610.301220
 30
0.0
 10
153.798072
 20
612.934764
 30
0.0
 10
154.463816
 20
615.170068
 30
0.0
 10
155.133840
 20
616.820948
 30
0.0
 10
155.744128
 20
617.701220
 30
0.0
 10
156.607808
 20
618.089500
 30
0.0
 10
158.004608
 20
618.407468
 30
0.0
 10
159.741544
 20
618.622316
 30
0.0
 10
161.625648
 20
618.701196
 30
0.0
 10
165.838048
 20
618.191076
 30
0.0
 10
168.176624
 20
616.584500
 30
0.0
 10
168.715784
 20
613.767116
 30
0.0
 10
167.529888
 20
609.624588
 30
0.0
 10
167.063952
 20
608.295900
 30
0.0
 10
166.682392
 20
606.801252
 30
0.0
 10
166.424576
 20
605.323700
 30
0.0
 10
166.329888
 20
604.046268
 30
0.0
 10
166.263808
 20
602.805884
 30
0.0
 10
166.083872
 20
601.429212
 30
0.0
 10
165.817568
 20
600.083860
 30
0.0
 10
165.492376
 20
598.937484
 30
0.0
 10
164.094392
 20
593.724196
 30
0.0
 10
162.420248
 20
585.941172
 30
0.0
 10
160.911384
 20
577.797236
 30
0.0
 10
160.009256
 20
571.501196
 30
0.0
 10
159.707520
 20
569.033628
 30
0.0
 10
159.318112
 20
566.750396
 30
0.0
 10
158.891296
 20
564.905708
 30
0.0
 10
158.477336
 20
563.753788
 30
0.0
 10
158.109448
 20
562.944900
 30
0.0
 10
157.808192
 20
562.034236
 30
0.0
 10
157.604648
 20
561.133340
 30
0.0
 10
157.529928
 20
560.353788
 30
0.0
 10
157.009144
 20
558.161364
 30
0.0
 10
155.391168
 20
556.653740
 30
0.0
 10
152.592576
 20
555.786052
 30
0.0
 10
148.529928
 20
555.513444
 30
0.0
 10
146.191616
 20
555.572724
 30
0.0
 10
144.112464
 20
555.725468
 30
0.0
 10
142.518696
 20
555.948444
 30
0.0
 10
141.636488
 20
556.218436
 30
0.0
 10
141.636504
 20
556.218436
 30
0.0
 10
141.636528
 20
556.218436
 30
0.0
 10
141.636544
 20
556.218436
 30
0.0
 10
141.636504
 20
556.218396
 30
0.0
  0
ENDSEC
  0
SECTION
  2
OBJECTS
  0
DICTIONARY
  5
C
330
0
100
AcDbDictionary
  3
ACAD_GROUP
350
D
  3
ACAD_MLINESTYLE
350
17
  0
DICTIONARY
  5
D
330
C
100
AcDbDictionary
  0
DICTIONARY
  5
1A
330
C
100
AcDbDictionary
  0
DICTIONARY
  5
17
330
C
100
AcDbDictionary
  3
STANDARD
350
18
  0
DICTIONARY
  5
19
330
C
100
AcDbDictionary
  0
ENDSEC
  0
EOF
